<svg xmlns="http://www.w3.org/2000/svg" width="32" height="32" viewBox="0 0 32 32">
    <g fill="none" fill-rule="nonzero">
        <circle cx="16" cy="16" r="16" fill="#333"/>
        <path fill="#FFF" d="M26.73 19.175c-1.013 1.157-2.6 1.743-4.719 1.743-3.842 0-5.418-1.267-6.064-2.319-.646 1.052-2.222 2.32-6.064 2.32-2.118 0-3.706-.587-4.719-1.744-1.412-1.613-1.15-3.72-1.137-3.808a.45.45 0 0 1 .893.074c-.001.166.065 1.02 1.49 1.054h.015c.638 0 1.316-1.071 1.97-2.107.984-1.555 2.099-3.318 3.941-3.318 2.03 0 3.095.914 3.611 1.609.516-.695 1.581-1.61 3.61-1.61 1.843 0 2.958 1.764 3.941 3.319.655 1.036 1.333 2.107 1.97 2.107h.015c1.426-.034 1.493-.889 1.491-1.06a.446.446 0 0 1 .412-.459c.236-.02.45.154.482.39.011.09.274 2.196-1.138 3.81z"/>
    </g>
</svg>
