<svg xmlns="http://www.w3.org/2000/svg" width="32" height="32" viewBox="0 0 32 32">
    <g fill="#000" fill-rule="nonzero">
        <path d="M27.314 4.686A16.003 16.003 0 0 0 6.74 2.948a.625.625 0 1 0 .724 1.019A14.7 14.7 0 0 1 26.43 5.57 14.653 14.653 0 0 1 30.75 16c0 3.94-1.534 7.644-4.32 10.43A14.653 14.653 0 0 1 16 30.75c-3.94 0-7.644-1.534-10.43-4.32C.436 21.296-.22 13.297 4.006 7.41a.625.625 0 0 0-1.015-.729 16.01 16.01 0 0 0 1.695 20.633A15.896 15.896 0 0 0 16 32c4.274 0 8.292-1.664 11.314-4.686A15.896 15.896 0 0 0 32 16c0-4.274-1.664-8.292-4.686-11.314z"/>
        <path d="M5.577 4.681a.625.625 0 0 0-.884-.002l-.012.012a.625.625 0 1 0 .882.886l.012-.012a.625.625 0 0 0 .002-.884zM20.483 8.812A6.636 6.636 0 0 0 16 10.54a6.636 6.636 0 0 0-4.483-1.727c-3.747 0-6.796 3.12-6.796 6.955 0 2.22 1.865 4.956 5.544 8.13a50.931 50.931 0 0 0 5.4 4.038.625.625 0 0 0 .67 0c.11-.07 2.732-1.737 5.4-4.038 3.678-3.174 5.544-5.91 5.544-8.13 0-3.835-3.05-6.955-6.796-6.955zm-4.481 17.85a51.126 51.126 0 0 1-4.92-3.712c-3.344-2.884-5.11-5.368-5.11-7.183 0-3.146 2.487-5.705 5.545-5.705 1.536 0 2.965.632 4.024 1.78a.625.625 0 0 0 .918 0c1.059-1.148 2.488-1.78 4.024-1.78 3.058 0 5.546 2.56 5.546 5.705 0 3.594-6.94 8.88-10.027 10.896z"/>
        <path d="M17.507 12.79l-.005.004a.625.625 0 0 0 .911.856l.013-.014a.625.625 0 1 0-.92-.847zM20.483 11.475c-.234 0-.468.02-.696.06a.625.625 0 0 0 .216 1.231c.157-.027.318-.041.48-.041 1.589 0 2.882 1.364 2.882 3.042a.625.625 0 0 0 1.25 0c0-2.367-1.854-4.292-4.132-4.292zM16 3.07a.625.625 0 0 0-.625.624v1.631a.625.625 0 0 0 1.25 0v-1.63A.625.625 0 0 0 16 3.068zM10.347 6.592L9.194 5.44a.625.625 0 0 0-.884.884l1.153 1.153a.623.623 0 0 0 .884 0 .625.625 0 0 0 0-.884zM23.69 5.439a.625.625 0 0 0-.884 0l-1.153 1.153a.625.625 0 0 0 .884.884l1.153-1.153a.625.625 0 0 0 0-.884z"/>
    </g>
</svg>
