<svg xmlns="http://www.w3.org/2000/svg" width="32" height="32" viewBox="0 0 32 32">
    <g fill="none" fill-rule="nonzero">
        <circle cx="16" cy="16" r="15.375" fill="#FFF"/>
        <path fill="#FF5A5A" d="M20.483 9.437c-1.766 0-3.358.761-4.483 1.98a6.082 6.082 0 0 0-4.483-1.98c-3.408 0-6.17 2.834-6.17 6.33C5.346 20.663 16 27.407 16 27.407s10.653-6.744 10.653-11.64c0-3.496-2.762-6.33-6.17-6.33z"/>
        <path fill="#000" d="M16 32a15.896 15.896 0 0 1-11.314-4.686A16 16 0 0 1 2.991 6.68a.625.625 0 0 1 1.015.73C-.22 13.296.436 21.295 5.57 26.43A14.653 14.653 0 0 0 16 30.75c3.94 0 7.644-1.534 10.43-4.32A14.653 14.653 0 0 0 30.75 16c0-3.94-1.534-7.644-4.32-10.43A14.7 14.7 0 0 0 7.465 3.967a.625.625 0 1 1-.724-1.02 16.003 16.003 0 0 1 20.572 1.738A15.895 15.895 0 0 1 32 16.001c0 4.274-1.665 8.292-4.686 11.314A15.896 15.896 0 0 1 16 32z"/>
        <path fill="#000" d="M5.122 5.76a.625.625 0 0 1-.44-1.068l.011-.013a.625.625 0 1 1 .882.886l-.012.012a.623.623 0 0 1-.44.182zM16 28.032a.625.625 0 0 1-.334-.097 50.931 50.931 0 0 1-5.401-4.038c-3.679-3.174-5.544-5.91-5.544-8.13 0-3.835 3.049-6.955 6.796-6.955 1.675 0 3.244.61 4.483 1.727a6.636 6.636 0 0 1 4.483-1.727c3.747 0 6.796 3.12 6.796 6.955 0 2.22-1.866 4.956-5.544 8.13a50.931 50.931 0 0 1-5.4 4.038.625.625 0 0 1-.335.097zm-4.483-17.97c-3.058 0-5.546 2.56-5.546 5.705 0 1.815 1.767 4.299 5.11 7.183a51.126 51.126 0 0 0 4.921 3.713c3.087-2.016 10.027-7.302 10.027-10.896 0-3.146-2.488-5.705-5.546-5.705-1.537 0-2.965.632-4.024 1.78a.625.625 0 0 1-.918 0c-1.059-1.148-2.488-1.78-4.024-1.78z"/>
        <path fill="#000" d="M23.99 16.392a.625.625 0 0 1-.625-.625c0-1.678-1.293-3.042-2.882-3.042-.162 0-.323.014-.48.041a.625.625 0 0 1-.215-1.231c.227-.04.461-.06.695-.06 2.278 0 4.132 1.925 4.132 4.292 0 .345-.28.625-.625.625zm-6.032-2.545a.625.625 0 0 1-.455-1.053l.004-.005a.625.625 0 1 1 .919.847l-.013.014a.623.623 0 0 1-.455.197zM16 5.95a.625.625 0 0 1-.625-.625v-1.63a.625.625 0 0 1 1.25 0v1.63c0 .345-.28.625-.625.625zM9.905 7.66a.623.623 0 0 1-.442-.184L8.31 6.323a.625.625 0 0 1 .884-.884l1.153 1.153a.625.625 0 0 1-.442 1.067zM22.095 7.66a.625.625 0 0 1-.442-1.067l1.153-1.154a.625.625 0 0 1 .884.884l-1.153 1.153a.623.623 0 0 1-.442.183z"/>
    </g>
</svg>
