<svg xmlns="http://www.w3.org/2000/svg" xmlns:xlink="http://www.w3.org/1999/xlink" width="90" height="46" viewBox="0 0 90 46">
    <defs>
        <path id="a" d="M.299.41h1.119v11.58H.298z"/>
    </defs>
    <g fill="none" fill-rule="evenodd">
        <path fill="#231F20" d="M44.85 45.477c.645-5.046.68-10.136.736-15.216.051-4.674.338-9.471-.322-14.109-.081-.573-1.077-.573-1.158 0-.661 4.641-.369 9.431-.323 14.109.051 5.08.091 10.17.736 15.216.027.213.304.213.332 0"/>
        <g transform="translate(44.651 .288)">
            <mask id="b" fill="#fff">
                <use xlink:href="#a"/>
            </mask>
            <path fill="#231F20" d="M1.096 11.788c.494-3.606.3-7.381.188-11.009C1.27.285.54.287.517.78c-.16 3.6-.413 7.349.03 10.935.034.278.502.417.549.074" mask="url(#b)"/>
        </g>
        <path fill="#231F20" d="M50.853 43.873c1.373-3.996 2.079-8.264 2.889-12.404.731-3.745 1.786-7.702 1.796-11.527.002-.778-1.16-.946-1.363-.184-1.085 4.068-1.204 8.478-1.83 12.643-.574 3.807-1.428 7.6-1.777 11.433-.016.17.235.184.285.039M56.505 14.49c1.205-2.78 1.766-6 2.299-8.97.123-.684-.857-.98-1.059-.29-.847 2.894-1.795 6.043-1.953 9.068-.02.362.56.546.713.193M57.566 42.659c2.73-5.718 5.075-11.623 7.513-17.47 2.58-6.184 5.394-12.368 7.51-18.728.194-.584-.729-.985-1.003-.423-2.775 5.693-4.96 11.711-7.318 17.586-2.5 6.228-5.101 12.443-7.27 18.796-.113.329.415.558.568.239M64.407 43.338c3.063-3.718 5.612-7.914 8.208-11.964 2.799-4.365 5.867-8.714 8.121-13.39.341-.706-.581-1.227-1.037-.607-2.959 4.026-5.34 8.509-7.967 12.756-2.624 4.24-5.504 8.415-7.78 12.854-.142.276.234.619.455.351M72.046 43.018c2.792-2.83 5.143-6.138 7.538-9.305 2.623-3.467 5.35-6.93 7.484-10.727.31-.553-.476-1.226-.911-.704-2.562 3.076-4.74 6.454-7.054 9.713-2.51 3.534-5.296 6.94-7.545 10.646-.183.302.24.629.488.377M80.025 43.142c2.799-1.948 5.165-4.967 7.171-7.695.335-.455-.405-1.019-.78-.602a204.142 204.142 0 0 0-3.59 4.096c-1.072 1.252-2.29 2.422-3.212 3.79-.165.244.166.582.41.411M86.635 42.022c.75-.772 1.652-1.43 2.602-1.937.273-.146.083-.632-.215-.512a6.533 6.533 0 0 0-2.768 2.068c-.209.265.134.637.381.381M38.802 43.834c-.35-3.834-1.203-7.626-1.776-11.432-.627-4.16-.748-8.581-1.831-12.644-.202-.755-1.366-.602-1.364.185.01 3.83 1.064 7.777 1.798 11.526.809 4.138 1.516 8.411 2.887 12.404.05.144.3.134.286-.04M33.578 14.297c-.158-3.025-1.106-6.175-1.953-9.068-.202-.688-1.182-.394-1.06.292.534 2.97 1.095 6.19 2.3 8.97.152.353.732.17.713-.194M32.372 42.42c-2.17-6.353-4.77-12.568-7.27-18.795-2.359-5.876-4.543-11.894-7.319-17.587-.27-.557-1.2-.167-1.003.423 2.116 6.36 4.93 12.544 7.51 18.729 2.439 5.846 4.784 11.75 7.514 17.469.151.316.682.094.568-.24M25.418 42.987c-2.278-4.441-5.155-8.612-7.78-12.854-2.627-4.244-5.01-8.732-7.968-12.757-.454-.618-1.377-.1-1.037.607 2.255 4.677 5.323 9.027 8.122 13.391 2.597 4.052 5.145 8.245 8.208 11.964.218.265.598-.073.455-.351M17.812 42.642c-2.25-3.707-5.035-7.113-7.545-10.646-2.315-3.26-4.492-6.638-7.053-9.713-.432-.518-1.225.144-.912.702 2.133 3.797 4.861 7.262 7.484 10.728 2.395 3.166 4.746 6.474 7.537 9.305.247.25.674-.072.489-.376M9.756 42.731c-.923-1.369-2.14-2.537-3.212-3.791a201.916 201.916 0 0 0-3.59-4.095c-.371-.413-1.119.143-.78.602 2.007 2.729 4.372 5.746 7.17 7.695.246.17.576-.167.412-.41M3.115 41.641a6.536 6.536 0 0 0-2.767-2.068c-.295-.118-.492.365-.215.512.95.506 1.851 1.165 2.601 1.937.249.256.591-.116.381-.38"/>
    </g>
</svg>
