<svg xmlns="http://www.w3.org/2000/svg" xmlns:xlink="http://www.w3.org/1999/xlink" width="241" height="85" viewBox="0 0 241 85">
    <defs>
        <path id="a" d="M.193.12h1.64v8.565H.194z"/>
        <path id="c" d="M0 .072h78.617V31.9H0z"/>
    </defs>
    <g fill="none" fill-rule="evenodd">
        <path fill="#000" d="M33.264 58.78c.294.21.378.63.168.924-.042.042-2.94 4.41-6.426 8.694-2.016 2.478-3.864 4.452-5.46 5.838-.21.21-.42.42-.63.588h-.042c-1.596 1.302-2.898 1.932-3.99 1.932-.126 0-.252 0-.378-.042-.714-.084-1.68-.546-2.184-2.226-.588-1.89-.504-4.452.21-7.602l-5.88.252c-1.722 3.864-3.444 7.35-4.704 8.736a9.123 9.123 0 0 1-1.512 1.344c-1.302.924-2.94-.588-2.1-1.974 0 0 0-.042.042-.042.462-.84 1.848-4.032 3.402-7.896l-1.092.042c-.378 0-.63-.252-.672-.63 0-.336.294-.63.63-.672l1.638-.042c2.562-6.426 5.376-14.07 5.46-15.834 0 0 1.008-2.058 3.36-1.176.63.252 2.016.462.714 4.578-.756 2.394-2.604 7.476-4.62 12.222l5.628-.21c.672-2.478 1.722-5.334 3.066-8.442 2.52-5.796 5.46-10.668 5.46-10.71.042-.042.084-.126.126-.168 1.302-1.218 3.696-.21 3.99-.126a.667.667 0 0 1 .336.42.53.53 0 0 1-.042.504c-.042.084-2.898 4.872-5.418 10.626-3.276 7.518-4.494 13.188-3.486 16.422.042.126.042.21.084.294.042-.084.126-.126.21-.168.252-.168.588-.378 1.008-.504a5.32 5.32 0 0 0 .546-.462c1.512-1.344 3.318-3.234 5.292-5.712 3.444-4.2 6.342-8.526 6.342-8.568.21-.336.63-.378.924-.21zm14.532.084a.609.609 0 0 1 .882.042c.252.294.21.672-.042.924-.126.126-13.65 11.928-17.682 15.204a.318.318 0 0 1-.168.084c-.336.21-.798.252-1.218.126-1.512-.378-2.898-1.512-2.982-3.444-.21-3.318 1.134-6.048 3.528-10.416 2.142-3.864 3.402-3.528 4.158-3.528 2.142 0 2.184 1.68 2.184 1.68-2.268 2.688-5.292 10.038-5.838 12.264a2.231 2.231 0 0 0 .21 1.68c4.662-3.906 16.842-14.49 16.968-14.616zm-9.156-3.948c-2.142 1.26-4.2-.63-4.2-.63 2.436-3.906 4.662-4.074 6.006-3.402 1.344.63.336 2.814-1.806 4.032zm30.954 3.948c.294.21.294.63.084.882-.084.084-4.452 5.124-8.946 10.248-2.1 2.436-4.242 3.108-5.88 3.108-.42 0-.798-.042-1.134-.084-1.932-.336-3.192-1.386-3.234-1.428-.294-.252-.336-.63-.084-.924 0-.042.084-.084.084-.084.084-.084.252-.168.462-.294.504-.21 1.764-.378 2.1-.882 4.2-6.468 5.334-8.484 5.796-11.256.042-.168-.042-.588-.504-.798-.462.252-.924.63-1.512 1.092-1.302 1.05-2.814 2.604-4.452 4.62-1.302 1.554-2.478 3.108-3.36 4.41-2.772 7.056-5.418 14.532-5.712 15.708-.252.966-4.284 2.016-4.368.042-.21-3.276 6.804-21.126 9.198-25.494 2.142-3.864 2.604-4.284 3.36-4.41a4.04 4.04 0 0 1 2.604.378c.42.21.546.756.336 1.176-.882 1.428-2.226 4.494-3.696 8.148l.63-.756c4.074-4.956 7.098-7.14 9.198-6.804 1.302.252 1.848.966 2.1 1.554.252.504.336 1.176.252 1.932.042.924-.168 2.058-.798 3.402-1.218 2.646-2.772 4.956-4.578 7.812-.252.336-.672.966-1.26 1.428 1.218-.336 2.394-1.176 3.444-2.436 4.536-5.124 8.904-10.164 8.946-10.248.252-.252.63-.294.924-.042zm15.204.042c.21.294.21.672-.084.924-.126.126-3.066 2.604-11.088 7.98.462 4.41-1.134 7.434-2.772 10.122-1.974 3.318-7.266 7.602-11.172 3.528-.252-.252-.378-.504-.504-.756-.168-.294-.336-.672-.336-1.134-.084-1.05.462-2.31 1.596-3.654 1.428-1.638 3.78-3.528 6.972-5.586.588-.378 1.218-.756 1.764-1.134-.168-2.982-1.05-5.838-.798-8.694.252-3.612 3.528-5.208 5.502-5.88.546-.252 1.05-.378 1.47-.378.504-.042.966.084 1.344.336 1.386.966 1.05 3.444 1.008 3.738-.084.336-.336.546-.672.546h-.084c-.378-.042-.588-.378-.546-.756.084-.63.126-2.058-.462-2.478-.378-.252-1.05-.126-2.016.42-1.008 1.68-2.016 4.62-.882 8.652.168.588.294 1.134.42 1.68 7.56-5.082 10.374-7.518 10.416-7.56.252-.21.672-.168.924.084zM67.284 77.008c1.428-2.184 1.89-4.284 1.932-6.3-.378.252-.756.462-1.134.714-3.066 1.974-5.292 3.78-6.636 5.292-1.134 1.386-1.386 2.268-1.344 2.772 1.302 2.562 5.04.882 7.182-2.478zm32.886-29.316c.252-.252.672-.168.882.126.252.252.168.672-.084.882-1.89 1.428-5.544 1.764-8.946 1.764-3.612 6.132-7.98 15.33-7.644 23.058 0 0 .042.588.252 1.05 5.544-6.174 13.692-15.54 13.776-15.666a.609.609 0 0 1 .882-.042.58.58 0 0 1 .084.882c0 .042-.084.126-.252.336-.294.336-8.61 10.584-11.802 14.574-1.092 1.428-2.31 2.142-3.528 2.142h-.168c-1.302-.042-2.268-.924-2.73-1.47-.546-.168-1.008-.714-.924-3.528.168-5.838 4.158-14.868 7.686-21.42-.84-.042-1.596-.084-2.016-.042-.84.042-1.512.294-1.932.798-.336.336-.42.714-.42.714l-1.26-.294c0-.042.168-.63.672-1.26.462-.504 1.344-1.176 2.856-1.26.588 0 1.47 0 2.646.042h.168c1.722-3.066 3.234-5.46 4.116-6.51.798-.924 1.554-1.638 2.142-1.89.966-.42 4.158-.252 1.722 3.15-.546.714-1.89 2.646-3.528 5.334 2.898-.042 5.922-.378 7.35-1.47zm12.684 11.172c.294-.252.714-.21.924.042.252.294.21.672-.042.924-.084.042-4.536 3.948-9.072 7.854-2.73 2.352-4.662 4.032-6.09 5.208-.714.63-1.302 1.26-1.848 1.806-.882.924-1.554 1.554-2.268 1.722-.21.042-.42.042-.588.042h-.378c-1.932-.126-3.654-1.932-3.36-3.402.714-3.864 3.276-8.106 4.704-10.71 2.1-3.864 6.048-5.124 6.762-5.124 3.654.21 3.318 2.94 3.318 2.94l-.042-.042v.252c-.966 4.032-7.014 5.838-7.266 5.922h-.084c-.798 1.638-1.596 3.612-2.562 6.006-.084.21-.336 1.386-.63 2.436.42-.294 1.638-1.302 3.36-2.772.084-.084.168-.126.252-.21 3.948-3.36 10.248-8.82 14.91-12.894zm-9.24 1.218c-.756-1.47-2.016-.084-2.226.126-1.05 1.218-2.016 2.604-3.024 4.452 1.68-.714 4.662-2.184 5.25-4.578zm29.988-1.218c.252.21.294.63.042.882-.042.084-4.536 5.25-9.072 10.416-9.282 10.542-9.702 10.752-9.996 10.836a.677.677 0 0 1-.378.126c-.294.168-1.68.084-2.058-.126-1.512-.924-1.218-2.898-1.134-3.99.42-4.2 3.15-9.702 5.544-14.07.84-1.47 1.512-2.31 2.1-2.814-.336.042-.714.126-1.176.21-1.26.294-2.856.672-4.62.294-2.016-.462-2.856-1.596-3.192-2.478-.336-.924-.252-1.722-.252-1.848l.168-.336s3.78-4.242 4.536 3.528c1.092.042 2.142-.168 3.066-.378.714-.168 1.386-.336 2.016-.336.714 0 1.302.21 1.722.672 1.932.084 1.974 1.68 1.974 1.68-2.268 2.646-7.266 13.65-7.854 15.876-.084.336-.42 1.47-.462 1.932v.378c.924-.966 3.318-3.528 9.198-10.248 4.494-5.082 8.862-10.122 8.904-10.164.21-.252.63-.294.924-.042zm-.84-3.486l3.528-5.964a.674.674 0 0 1 .462-.21c.168-.042.336-.084.504-.042.168 0 .336 0 .42.084.084.084.126.126.042.21l-2.016 6.888c-.042.252-.252.42-.63.42-.42.084-.798.084-1.176-.042a2.29 2.29 0 0 1-1.008-.504c-.294-.21-.294-.504-.126-.84zm22.386 3.528c.21.294.21.672-.084.924-.126.126-3.066 2.604-11.088 7.98.462 4.41-1.134 7.434-2.772 10.122-1.974 3.318-7.266 7.602-11.172 3.528-.252-.252-.378-.504-.504-.756-.168-.294-.336-.672-.336-1.134-.084-1.05.462-2.31 1.596-3.654 1.428-1.638 3.78-3.528 6.972-5.586.588-.378 1.218-.756 1.764-1.134-.168-2.982-1.05-5.838-.798-8.694.252-3.612 3.528-5.208 5.502-5.88.546-.252 1.05-.378 1.47-.378.504-.042.966.084 1.344.336 1.386.966 1.05 3.444 1.008 3.738-.084.336-.336.546-.672.546h-.084c-.378-.042-.588-.378-.546-.756.084-.63.126-2.058-.462-2.478-.378-.252-1.05-.126-2.016.42-1.008 1.68-2.016 4.62-.882 8.652.168.588.294 1.134.42 1.68 7.56-5.082 10.374-7.518 10.416-7.56.252-.21.672-.168.924.084zm-17.514 18.102c1.428-2.184 1.89-4.284 1.932-6.3-.378.252-.756.462-1.134.714-3.066 1.974-5.292 3.78-6.636 5.292-1.134 1.386-1.386 2.268-1.344 2.772 1.302 2.562 5.04.882 7.182-2.478zm41.076 1.176c.336-.126.714.042.798.378a.652.652 0 0 1-.378.84c-2.184.756-4.116 1.092-5.838 1.092-4.368 0-7.434-1.974-9.828-3.57-.126-.042-.21-.126-.294-.168-.462.714-.84 1.302-1.176 1.68-.504.546-1.596 1.302-2.31 1.47-.042.042-.084.042-.084.042-.924.252-3.276.294-4.578-.84-.672-.546-1.302-1.638-.672-3.57.336-.924.924-1.554 1.722-1.89 1.302-.588 2.856-.294 4.074.126 2.814-7.098 8.736-23.478 8.904-25.746 0 0 1.008-2.1 3.318-1.176.63.252 2.058.462.756 4.536-1.218 3.822-6.342 18.312-9.366 24.192l.378.252c3.36 2.184 7.476 4.872 14.574 2.352zm-23.1-2.226c-.504 1.47.042 1.974.21 2.142.252.21.546.378.966.504 0-.042.084-.042.252-.042.882.21 1.176-.462 1.302-.714l.084-.084c.21-.378.672-1.386 1.218-2.814-1.092-.336-2.226-.462-3.066-.126-.462.21-.798.588-.966 1.134zm45.612-17.178c.294.21.336.63.168.924-.042.042-3.528 4.998-7.098 9.954-2.058 2.94-3.78 5.25-5.04 6.972-2.478 3.318-2.73 3.444-2.94 3.528-.462.21-.882.294-1.218.294-2.016.294-4.62-.84-4.788-3.57-.084-1.344.42-3.15 1.176-5.124-.084.126-.168.21-.252.294-.756.714-1.47 1.302-2.184 1.68-.672.504-1.806 1.26-1.89 1.26-1.47-.042-3.486-1.428-3.36-3.024.168-2.016 1.512-4.788 2.94-7.35 1.848-3.234 4.452-5.922 6.258-6.678 1.344-.546 2.898.882 4.074 2.94 1.512-2.31 2.646-3.066 3.276-3.066 2.142 0 2.898 1.47 2.898 1.47-2.268 2.646-8.316 15.372-8.904 17.598-.252 1.008.168 1.764.714 2.31.168-.042.42-.084.672-.21.294-.252 1.638-1.806 7.728-10.332 3.486-4.872 6.846-9.66 6.846-9.702.21-.294.63-.378.924-.168zm-16.17 5.418a.916.916 0 0 1 .168-.21c.252-.378.42-.798.63-1.134.168-.294.294-.546.462-.798-1.05-.966-1.47-1.05-2.31-.42-1.806 1.302-3.822 3.612-5.922 11.172.714-.336 1.47-.924 2.31-1.764 1.512-1.512 3.066-3.822 4.662-6.846zm39.816-5.334c.294.21.336.63.084.924-.084.084-9.072 10.584-14.826 16.212-1.344 1.302-2.646 1.974-3.948 1.974h-.168c-.42 0-.756-.084-1.05-.21-1.134.714-2.604.924-3.822.882-.21 0-.672 0-1.134-.126-1.008-.168-1.638-.546-1.974-1.134-.378-.756-.168-1.68.672-2.73.462-.588 1.008-.966 1.596-1.008 1.008-.126 1.89.504 2.814 1.26 2.268-2.898 4.662-8.61 4.998-10.584.126-.966-.21-1.218-.714-1.218-.504.126-1.134.42-1.932.84-2.394 1.344-3.528 2.436-5.166 4.914-.882 2.478-1.428 4.242-1.596 4.872-.084.378-.756 1.596-1.05 1.89-1.05 1.092-2.604.798-3.486.336-.798-.42-.168-.882-.042-1.89.462-3.486 8.19-23.73 17.178-32.634 1.428-1.47 2.268-2.226 2.856-2.646a.506.506 0 0 1 .21-.21c2.352-1.26 4.41-1.302 5.418-.126 1.008 1.134 1.302 3.696-2.898 9.576-3.612 5.124-7.308 8.4-9.744 10.248-1.47 1.134-2.646 1.89-3.444 2.352a71.732 71.732 0 0 0-1.89 4.326c.84-.798 1.764-1.428 3.024-2.142a17.759 17.759 0 0 1 1.89-.882h.042c4.872-1.638 6.384.798 4.704 5.418-1.596 4.452-2.94 6.594-5.334 9.324.924.042 2.016-.504 3.108-1.596 5.67-5.586 14.658-16.044 14.742-16.128a.58.58 0 0 1 .882-.084zm-8.106-18.102c-4.998 4.872-9.072 11.55-12.054 17.682.504-.336 1.05-.756 1.68-1.218 2.352-1.806 5.922-4.998 9.45-9.954 3.066-4.242 3.654-6.72 3.15-7.728-.546-.252-2.226 1.218-2.226 1.218zM199.71 75.454c-.462.588-.63 1.092-.504 1.344.042.042.084.126.168.168.672 0 1.722-.084 2.856-1.092-.63-.546-1.302-1.008-1.764-.966-.252.042-.504.21-.756.546zm40.446-16.548c.21.294.21.672-.084.924-.126.126-3.066 2.604-11.088 7.98.462 4.41-1.134 7.434-2.772 10.122-1.974 3.318-7.266 7.602-11.172 3.528-.252-.252-.378-.504-.504-.756-.168-.294-.336-.672-.336-1.134-.084-1.05.462-2.31 1.596-3.654 1.428-1.638 3.78-3.528 6.972-5.586.588-.378 1.218-.756 1.764-1.134-.168-2.982-1.05-5.838-.798-8.694.252-3.612 3.528-5.208 5.502-5.88.546-.252 1.05-.378 1.47-.378.504-.042.966.084 1.344.336 1.386.966 1.05 3.444 1.008 3.738-.084.336-.336.546-.672.546h-.084c-.378-.042-.588-.378-.546-.756.084-.63.126-2.058-.462-2.478-.378-.252-1.05-.126-2.016.42-1.008 1.68-2.016 4.62-.882 8.652a32.7 32.7 0 0 1 .42 1.68c7.56-5.082 10.374-7.518 10.416-7.56.252-.21.672-.168.924.084zm-17.514 18.102c1.428-2.184 1.89-4.284 1.932-6.3-.378.252-.756.462-1.134.714-3.066 1.974-5.292 3.78-6.636 5.292-1.134 1.386-1.386 2.268-1.344 2.772 1.302 2.562 5.04.882 7.182-2.478zM58.89 8.942c-1.704-1.045-3.253-1.263-5.057-.441-1.037.473-2.437.014-2.831 1.428-.016.058.084.102.115.043.39-.748 1.495-1.243 2.39-.717a.286.286 0 0 0 .309-.035c1.496-1.356 3.252-.46 4.876.132.285.105.418-.274.198-.41M63.877 12.011c-1.33-1.006-3.275-1.425-4.716-.488-.6.39-.366.287-.99.38-.547.081-.87.285-1.154.858-.073.148.107.328.205.19l1.401-.283c.095.074.215.037.294-.046 1.366-1.431 3.246-.72 4.75-.011.297.14.461-.41.21-.6M62.044 7.002c-.404-.027-.797.188-1.028.646-.062.121.072.25.146.153.25-.325.58-.484.926-.409.321.07.47.352.718.58.097.09.217-.057.19-.198-.098-.514-.601-.749-.952-.772M71.835 7.692c-1.025.013-2.062.024-3.043-.206-.613-.143-1.2-.396-1.849-.464-.804-.085-1.542.07-1.929.581-.064.085.107.153.183.075.981-1.004 2.555-.07 3.67.174.975.213 1.968.155 2.968.077.214-.017.226-.24 0-.237M35.394 7.923c.323-1.165.725-2.531.573-3.708-.03-.23-.58-.314-.669-.058-.404 1.161-.304 2.553-.232 3.738.007.114.294.152.328.028M36.784 3.847c.118-.224.199-.449.216-.682.01-.16-.444-.233-.578-.084a2.2 2.2 0 0 0-.41.652c-.112.269.633.382.772.114M38.173 9.919c.752-2.397 1.447-5.093 1.823-7.64.043-.294-.247-.388-.33-.122-.748 2.398-1.293 5.153-1.664 7.699-.022.152.128.2.171.063M39.832 9.048a19.61 19.61 0 0 0-.813 1.668c-.074.174.085.384.168.231.29-.537.544-1.098.796-1.692.066-.157-.077-.345-.151-.207M43.735 9.038c-.264.251-.523.508-.719.796-.071.106.108.226.223.132.287-.236.52-.509.74-.783.09-.112-.13-.252-.244-.145"/>
        <g transform="translate(32)">
            <mask id="b" fill="#fff">
                <use xlink:href="#a"/>
            </mask>
            <path fill="#000" d="M1.833 8.546A54.085 54.085 0 0 0 .58.302C.505-.02.155.119.196.438c.347 2.72.815 5.501 1.418 8.147.034.148.23.128.22-.039" mask="url(#b)"/>
        </g>
        <path fill="#000" d="M20.867 23.053c-.262-.054-.51-.095-.77.025-.13.059-.13.74 0 .8.26.12.508.079.77.025.177-.037.177-.814 0-.85M16.887 24.009c-.269-.028-.53.017-.798.07-.119.025-.119.503 0 .527.268.054.53.098.798.07.15-.015.15-.651 0-.667M22.845 21.635c-3.477-.513-7.083-.688-10.606-.622-.32.006-.318.412 0 .423 3.529.115 7.028.342 10.548.564.241.015.3-.329.058-.365M21.213 19.002c-.26-.038-.285.487-.059.587.536.237 1.112.436 1.68.409.155-.008.239-.314.083-.418-.528-.354-1.121-.492-1.704-.578M16.847 18.231c-.234.162-.488.096-.706-.2-.11-.149-.198.267-.096.458.267.503.557.63.867.4.154-.113.089-.765-.065-.658M16.123 12.303a66.669 66.669 0 0 1 6.671 2.68c.161.074.288-.117.142-.203-2.026-1.203-4.35-2.144-6.716-2.772-.228-.06-.309.224-.097.295M24.01 12.292c.159.635.362 1.31.745 1.672.14.133.305-.132.223-.354-.197-.535-.489-.968-.692-1.501-.085-.222-.34-.077-.276.183M22.84 10.977c.107.085.21-.088.134-.18-.516-.642-1.145-1.213-1.753-1.76-.125-.114-.3.063-.183.189.564.611 1.15 1.239 1.802 1.751M26.677 9.92c.134.18.396.03.304-.174-1.031-2.265-2.38-4.457-3.586-6.639-.136-.243-.484-.03-.374.214 1.022 2.239 2.174 4.614 3.656 6.599M30.01 9.221c.138.294.303.552.716.755.107.052.253.015.266-.062.052-.31-.152-.562-.411-.828-.173-.176-.66-.056-.57.135M28.99 7.77a22.07 22.07 0 0 0-.712-1.695c-.074-.155-.325-.047-.27.119.197.588.418 1.149.662 1.717.08.186.392.052.32-.14M32.691 7.902c.075.166.35.108.304-.076-.407-1.59-1.009-3.164-1.605-4.702-.083-.215-.451-.13-.381.096.492 1.569 1.003 3.17 1.682 4.682M25.274 14.96c.269-.243.482-.503.699-.77.118-.145-.184-.267-.313-.13-.232.247-.463.488-.644.757-.075.111.135.254.258.142M30.95 13.199c.226-.148-.376-.283-.59-.134-.392.27-.531.618-.07.889.16.094.494.032.45-.074-.102-.245-.127-.46.21-.681M22.062 23.129c.083 0 .083-.129 0-.129s-.083.129 0 .129"/>
        <path fill="#000" d="M39.286 13.77c.124-.132.25-.262.384-.384a.388.388 0 0 0 .1-.018c-.084.066-.159.124-.207.168-.09.08-.185.156-.277.234m-3.445 1.716c.067-.117.132-.236.191-.359a2.12 2.12 0 0 0 .22-.278c.006-.011.008-.022.012-.033.122-.057.24-.12.354-.186.033.085.073.16.123.215-.073.109-.146.218-.214.327-.078.127 0 .27.134.317l.03.007c-.147.086-.294.171-.44.26-.028-.177-.224-.324-.41-.27m-2.328 2.543c.038-.12-.098-.268-.23-.182a7.77 7.77 0 0 0-.461.329c.095-.094.188-.194.278-.298a5.63 5.63 0 0 0 .447-.2c.1.053.229.042.297-.092.018-.037.044-.07.065-.107.266-.16.515-.344.747-.546.024.008.048.017.074.014a.766.766 0 0 0 .23-.07c-.04.09-.072.184-.089.28a.2.2 0 0 0-.184.09 3.048 3.048 0 0 1-.356.425.757.757 0 0 0-.192.12c-.208.081-.416.16-.626.237m-3.517 1.01a.988.988 0 0 0 .423-.16c.114-.081.144-.2.12-.308.122-.117.243-.24.36-.367a.153.153 0 0 0 .038-.087.152.152 0 0 0 .197-.037c.05-.058.099-.118.147-.18a.387.387 0 0 0 .212-.276c.039-.052.078-.105.118-.155a.299.299 0 0 0 .09-.004c.262-.05.5-.16.723-.301a.24.24 0 0 0 .02-.396c.063-.026.125-.053.196-.072.285-.076.562-.058.466.372a1.087 1.087 0 0 1-.184.353c-.374.167-.76.3-1.127.416-.274-.038-.478.371-.186.53.032.017.064.024.096.036-.107.138-.23.26-.365.37l-.251.07c.09-.13.168-.26.245-.397.064-.116-.104-.26-.199-.148-.11.131-.213.262-.31.402-.06.086-.007.166.07.198l-.086.025c-.11-.055-.229-.014-.303.069a15.51 15.51 0 0 1-.624.133c.038-.028.077-.057.114-.087m-4.03 2.051c-.027-.081-.133-.14-.218-.063-.359.33-.717.662-1.078.99-.132.086-.262.174-.397.26-.066.041-.065.105-.032.15-.098.097-.213.206-.331.313.159-.253.306-.516.445-.778l.066-.057a.299.299 0 0 0 .228-.014c.32-.152.573-.424.771-.72.02.011.045.014.066-.01.1-.109.204-.212.312-.31a4.65 4.65 0 0 1 .958-.447c-.254.24-.517.47-.79.686m-3.11.844c.009-.082.018-.163.029-.245.003-.029-.01-.052-.021-.076.043-.02.081-.046.124-.066-.05.126-.09.257-.133.387m6.047-8.562c-.066.128-.019.304.167.296.14-.007.28-.04.417-.09a.284.284 0 0 0 .034.252c-.378-.137-.637-.017-.817.24-.068-.085-.182-.128-.301-.046-.05.034-.095.073-.144.108-.054-.058-.14-.088-.22-.042-.36.21-.651.48-.834.83-.367.3-.775.612-1.019 1.016a.166.166 0 0 0-.013.14c-.91.782-1.604 1.862-2.104 2.89a.218.218 0 0 0-.022.1 1.9 1.9 0 0 0-.154.767.395.395 0 0 0-.352.11c-.141.146.066.33.22.213.036-.027.094.02.118.04.08.071.056.156.019.245a1.097 1.097 0 0 1-.15.237l-.017.013a.289.289 0 0 0-.056-.035c-.046-.08-.18-.082-.238.003a.216.216 0 0 0-.078.08c-.056.102-.097.207-.146.31a5.734 5.734 0 0 1-.33.18 13.563 13.563 0 0 1 1.365-3.248.152.152 0 0 0 .085-.09c.017-.043.031-.086.048-.128.208-.34.43-.667.667-.983a.204.204 0 0 0 .136-.06c.229-.227.498-.445.67-.716.04-.063.022-.128-.014-.179a12.642 12.642 0 0 1 3.063-2.453m7.942-1.683c-.021.004-.04.002-.062.01-.406.157-.827.14-1.257.112a.194.194 0 0 0-.211.146c.035-.114-.027-.26-.189-.264-.37-.009-.733.003-1.093.03.91-.099 1.848-.115 2.812-.034m.8.287c-.15-.07-.317-.1-.49-.11a.297.297 0 0 0-.129-.157c.517.05 1.04.124 1.568.228a6.985 6.985 0 0 0-.948.039m1.648.679c-.009-.145-.136-.21-.262-.192l-.014-.007c-.017-.008-.027-.023-.04-.035.155.01.31.015.467.034.007.001.013-.002.02-.002a.276.276 0 0 0-.17.202m-.271.542c-.04 0-.08.01-.116.024a4.171 4.171 0 0 0-.414-.03c-.347-.01-.347.527 0 .518.023 0 .044-.003.067-.003-.28.306-.576.57-.99.703.043-.066.083-.132.124-.198h.003l.098-.06a.206.206 0 0 0 .087-.257c.066-.117.133-.234.19-.353.175-.356.259-.773.047-1.133.163-.006.327-.01.491-.008-.037.037-.063.081-.057.136.022.197.129.404.352.447a.313.313 0 0 0 .384-.27c-.002.079.002.153.013.225-.096.08-.189.166-.28.259m-1.952 1.116l.028.004-.015.022-.013-.026m-.634-.94c-.129-.045-.225.067-.24.174a4.175 4.175 0 0 1-.174.766 4.105 4.105 0 0 0-.456.182.128.128 0 0 0-.039-.124c.06-.203.13-.406.233-.61h-.002c.009-.02.02-.039.028-.059.005-.011.003-.022.006-.033.069-.17.125-.342.169-.523.018-.078.037-.155.053-.232.185.169.394.308.645.414.183.078.346-.17.161-.266a2.01 2.01 0 0 1-.48-.337.232.232 0 0 0 .123-.138c.07-.012.14-.02.209-.032a.19.19 0 0 0 0 .163c.094.232.242.418.43.545-.08.207-.195.439-.223.664-.13-.25-.288-.502-.443-.555m-.039 1.052a.214.214 0 0 0-.037-.086c.034-.101.068-.202.098-.306.028.106.053.225.082.342l-.143.05m-1.28 1.48c.03-.081.062-.163.087-.247.056-.019.106-.045.16-.068-.079.108-.16.213-.248.315m-2.23-.245c.185-.129.366-.265.548-.399-.013.149.108.298.293.246.31-.087.584-.21.833-.36.011.089.089.174.206.147l.133-.032-.002.005a.265.265 0 0 0-.033.14 2.487 2.487 0 0 1-.263.68 2.414 2.414 0 0 0-.596.421c.117-.143.222-.306.35-.423a.196.196 0 0 0 .067-.192c.094-.057.19-.11.284-.17.28-.179-.022-.572-.286-.356-.17.14-.338.278-.497.43-.005.004-.007.01-.01.014-.229.143-.473.354-.523.602a.91.91 0 0 0-.485-.187l.127-.12c.178-.168.039-.4-.147-.446m-2.024.926a5.308 5.308 0 0 1-.184-.209l.058-.057.002.001a.213.213 0 0 1 .162.165c.036.18.333.175.373 0 .007-.032.003-.057.007-.086.058.114.202.194.334.11.24-.154.473-.312.709-.469-.161.16-.315.328-.448.512-.213.142-.41.317-.576.507-.135-.166-.291-.321-.437-.474m-3.711 3.392a.204.204 0 0 0-.104.065l-.074.02c.022-.06-.047-.144-.126-.104-.035.017-.067.037-.1.055-.008-.016-.014-.034-.02-.052.188-.155.372-.314.56-.471a.646.646 0 0 0 .006.249c.018.08.074.126.138.154-.093.028-.185.058-.28.084m-2.562-.905c-.1.22-.192.447-.263.684.059-.223.122-.434.207-.635l.056-.05m-.347 1.012l.081-.316c-.029.104.055.157.14.151-.06.087-.118.174-.178.259a.492.492 0 0 0-.043-.094m11.168-7.026c-.016.053-.025.106-.038.16a.264.264 0 0 0-.184-.022c-.18.042-.36.079-.542.115-.054.01-.107.022-.161.033-.003-.027-.01-.05-.012-.078-.002-.017-.008-.032-.013-.048l.004-.02c.037-.171.097-.334.172-.492.12-.005.241-.004.363-.005.074.041.168.048.254-.003.086.001.173.004.26.008-.039.117-.07.237-.103.352m-1.31.875c.057.232.137.456.253.676a1.437 1.437 0 0 0-.398.148.353.353 0 0 0-.219-.299c.126-.171.249-.345.365-.525m-2.26.742a.862.862 0 0 0 .13.153c0 .029.003.058.006.087-.12.074-.24.15-.358.226.082-.15.156-.306.222-.466m.719-.945a.979.979 0 0 1-.728-.457c.319-.122.64-.231.97-.314-.09.255-.171.512-.242.77m1.33-.333c-.167.29-.349.568-.544.835-.054-.04-.126-.058-.195-.019-.166.094-.329.193-.493.29.015-.065.03-.13.054-.195.004-.01.003-.018.005-.028a.156.156 0 0 0 .12-.094c.008-.018.013-.037.021-.055l.024-.004c.173-.045.184-.21.1-.312.12-.314.223-.633.325-.955.256-.048.515-.085.778-.11-.106.204-.193.436-.195.647m.9.941a2.874 2.874 0 0 1-.192-.472c.203-.044.407-.087.61-.133-.114.23-.254.43-.418.605m-4.573 1.575c-.058-.042-.121-.064-.184-.086.072-.385.115-.788.075-1.134.013-.044.026-.09.04-.13.049-.15-.027-.26-.138-.317a9.113 9.113 0 0 1 1.178-.698c-.197.368-.372.77-.43 1.147-.03.192.2.293.323.132.216-.286.373-.654.497-1.021.034.033.071.062.11.09-.306.834-.723 1.547-1.315 2.148a1.48 1.48 0 0 0-.156-.131m-3.624 3.041c.103-.137.192-.279.266-.42l.462-.014a.25.25 0 0 0 .024.26l-.54.46a.28.28 0 0 0-.212-.286m3.317-2.567l.033-.137a.554.554 0 0 1 .13.077l-.044.038a.258.258 0 0 0-.12.022m-1.362.867c.131-.096.265-.19.396-.29.01-.008.014-.017.022-.026.019.148.056.293.111.426.002.003.005.003.006.007-.174.133-.345.271-.517.408.048-.068.1-.133.145-.203.092-.143-.024-.294-.163-.322m-.877.606c.16-.104.315-.212.471-.319-.149.161-.296.324-.437.492l-.122-.005c.029-.056.06-.112.088-.168m.542-1.397c.091.052.23.044.274-.056a.81.81 0 0 0 .035-.105c.096.09.278.07.319-.075.12-.436.18-.823.446-1.187l.068-.023c-.07.22-.119.442-.095.645.011.1.1.184.197.206a.873.873 0 0 0-.2.135.975.975 0 0 0-.301.678.254.254 0 0 0-.334-.026c-.221.168-.436.34-.648.515.09-.232.17-.467.24-.707m-2.134 3.34c.018-.005.032-.017.049-.027l.006.045-.013.012c-.012-.012-.027-.02-.042-.03m3.734-2.602a.937.937 0 0 0-.091.23c-.013.057.017.108.058.142-.023.008-.046.01-.07.023-.267.152-.529.305-.788.463.22-.202.448-.398.662-.606.068-.066.06-.16.016-.23.007-.004.015-.002.022-.006.033-.021.064-.045.097-.067.028.023.06.04.094.051m1.462-.992a.49.49 0 0 0-.177-.29c.065-.08.127-.161.187-.244.07.106.203.167.338.074.17-.116.334-.235.5-.352l.008.012-.237.277c-.19.154-.382.304-.571.461a.202.202 0 0 0-.048.062m2.61.43a2.623 2.623 0 0 0-.29.397.703.703 0 0 0 .01-.257.25.25 0 0 0 .133-.028.71.71 0 0 0 .147-.112m3.864-3.697c-.241-.073-.48-.212-.63-.403-.014-.018-.032-.03-.05-.044.146-.019.292-.031.438-.045.151.113.24.28.242.492m-.275 2.1l-.053.032a.237.237 0 0 0-.155.054c-.014.012-.018.026-.03.038a1.26 1.26 0 0 1-.159-.015l.135-.2a.3.3 0 0 0 .262.091m-6.883-2.197c.102-.092.094-.207.036-.295a13.26 13.26 0 0 1 2.277-.655c-.128.029-.256.054-.385.09-.23.066-.129.369.096.337.831-.118 1.67-.218 2.511-.23a.19.19 0 0 0 .184-.118.25.25 0 0 0 .021.162c-.06.03-.12.062-.179.098a8.785 8.785 0 0 0-2.138.191c-.062-.103-.192-.172-.308-.089-.48.344-.901.26-1.45.178-.183-.027-.382.192-.204.339.026.021.055.034.082.052-.003.01-.007.017-.009.027l-.014.114c-.183.082-.359.176-.536.27a.176.176 0 0 0-.169-.09 1.669 1.669 0 0 0-.387.073c.212-.142.408-.304.572-.454m-3.588 3.027a.16.16 0 0 0 .041-.13c.14-.128.276-.258.419-.379.324-.276.663-.534 1.01-.782-.089.29-.143.615-.185.904a.173.173 0 0 0-.037-.01l.045-.103c.132-.286-.299-.54-.443-.25-.268.536-.59 1.073-.753 1.648-.068.243.269.362.408.166.123-.174.226-.36.322-.551a7.048 7.048 0 0 1-.592 1.418 1.786 1.786 0 0 1-.044-.52c-.005-.236-.366-.234-.379 0 .004.27-.042.524-.124.767a.24.24 0 0 0-.06.031c-.05-.112-.229-.142-.268.006l-.17.646a.187.187 0 0 0-.11.082c-.13.199-.247.39-.35.603-.087.179.01.325.145.379-.014.007-.028.011-.04.022a3.623 3.623 0 0 0-.791.933c-.036.035-.07.071-.107.106l-.093.078c-.02-.067-.093-.115-.169-.07-.205.122-.423.28-.623.462.04-.106.082-.213.125-.322v-.007c.087-.13.17-.263.246-.4.03.15.242.192.313.022.095-.23.171-.464.24-.702.104-.14.214-.276.302-.428.065-.111-.034-.205-.134-.2l.053-.211c.028-.106-.04-.18-.122-.204.098-.166.201-.33.31-.491-.006.025-.016.05-.021.074-.044.207.222.311.346.141.21-.287.323-.62.454-.944.09-.22-.294-.378-.4-.162l-.125.25c-.057-.034-.132-.039-.185.018a4.835 4.835 0 0 0-.31.377.207.207 0 0 0-.028-.065c.553-.782 1.207-1.466 1.884-2.202m2.079 3.316c.027-.248-.364-.422-.528-.162-.16.254-.389.395-.627.562.03-.07.056-.144.085-.22.066-.167-.027-.293-.16-.355.063-.053.126-.105.188-.159.048.113.182.192.339.12.306-.138.603-.285.897-.438-.043.063-.058.143-.007.22a.618.618 0 0 0 .206.192c-.128.084-.26.164-.393.24m1.888-1.662c-.116.047-.156.18-.119.286-.01.033-.02.066-.026.097-.002.014-.001.028 0 .042-.012-.003-.023-.008-.036-.009-.04-.18-.345-.299-.483-.085-.096.15-.194.29-.248.459a.165.165 0 0 0 .004.105c-.173.091-.333.05-.531.007-.022-.004-.042.004-.062.005.188-.1.376-.2.565-.304.267-.15.151-.488-.073-.563.08-.087.125-.17.18-.275.04-.078.011-.15-.041-.196l.006-.008c.05-.098.082-.195.103-.294.056-.045.112-.09.166-.136.043.057.086.115.13.167.056.07.36.507.498.642l-.033.06m8.99-4.307a.302.302 0 0 0 .033-.091c.022-.016.048-.029.07-.045-.01.029-.026.055-.04.082l-.063.054m.83-.913l-.095-.015c-.134-.02-.239.026-.3.116a.333.333 0 0 0-.264.013 4.097 4.097 0 0 0-.346.179c-.022-.03-.04-.059-.065-.088a.205.205 0 0 0-.17-.073c.087-.042.132-.147.123-.244.19.05.38.1.571.157.232.071.4-.29.169-.385-8.883-3.618-19.466 3.454-18.327 12.916.018.157.256.166.26 0 .011-.438.045-.866.09-1.29.081.019.173-.01.193-.104.028-.13.043-.263.065-.395.016.013.029.028.046.04.202.14.396-.183.196-.323a.63.63 0 0 1-.166-.18l.03-.231c.094.122.31.159.4-.009.152-.282.28-.568.394-.86.026.01.052.015.08.015-.02.094-.042.188-.057.282a1.65 1.65 0 0 0-.237.5.64.64 0 0 0 .005.363 6.422 6.422 0 0 1-.63.657c-.102.097-.03.286.098.306a8.932 8.932 0 0 0-.225.355c-.048.08.058.146.126.093.204-.16.388-.346.56-.544.18-.05.374-.204.504-.325.345-.32.685-.646 1.025-.973.905-.456 1.684-1.116 2.35-1.86.023.001.048.002.076-.006a7.671 7.671 0 0 0 1.97-.826.162.162 0 0 0 .094.026c.093-.004.184-.02.276-.026-.01.142.075.288.264.28.463-.02.89-.142 1.26-.354a.457.457 0 0 0 .229-.15c.072-.054.14-.112.207-.172.246-.081.49-.174.732-.276h.005c.144.061.322.06.44-.052.284-.068.563-.188.824-.29.16-.063.317-.133.476-.2a.253.253 0 0 0 .091.027c.017.03.042.056.075.071l.002.001c-.015.003-.031.01-.046.01-.228.019-.327.299-.119.424.573.345 1.2-.18 1.217-.76.007-.21-.163-.311-.333-.307a.27.27 0 0 0-.054-.133c.055-.078.116-.151.165-.235a.206.206 0 0 0 .027-.077c.023-.007.046-.011.068-.031.265-.233.39-.585.538-.896.166-.14.326-.287.487-.438l.001-.001c.017.049.048.092.093.115-.181.16-.358.324-.523.5-.105.112-.061.265.041.333a.225.225 0 0 0-.03.212c-.142.104-.283.209-.43.305-.176.117-.016.392.17.28.29-.172.554-.367.808-.57a.241.241 0 0 0 .122-.103 7.45 7.45 0 0 0 1.12-1.172l.022-.016c.037-.001.073-.011.095-.047l.032-.052.375-.292c.11-.084.126-.19.093-.284.18-.116.356-.234.53-.358.028.004.05.016.08.016.05 0 .088-.015.13-.025-.174.195.033.46.28.418.264-.046.396-.269.412-.512.012-.198-.155-.296-.322-.296l.005-.029c.582-.417 1.816-1.158 1.729-1.863-.014-.11-.077-.242-.207-.262"/>
        <g transform="translate(1 11)">
            <mask id="d" fill="#fff">
                <use xlink:href="#c"/>
            </mask>
            <path fill="#000" d="M71.438 22.561a.29.29 0 0 0 .025-.089l.262.397-.287-.308zm-2.195-2.834c.007-.013.008-.024.011-.038.051.05.106.097.156.148.58.601 1.1 1.265 1.59 1.96a285.155 285.155 0 0 1-1.757-2.07zm-.203-.242l-.002-.002.003.003h-.001zm-2.152-.863c.06-.072.087-.175.033-.268a5.257 5.257 0 0 0-1.188-1.405 14.506 14.506 0 0 1-.489-.676c.021-.08.045-.16.064-.24.405.54.8 1.182 1.08 1.517.303.36.61.713.917 1.067l.21.269c-.21-.084-.42-.174-.627-.264zm-1.975-1.03l-.007.002a.168.168 0 0 0-.037-.097c.095-.262.184-.527.262-.794.02.03.038.061.057.092-.079.068-.113.176-.03.289.092.13.185.26.279.389a4.24 4.24 0 0 1-.524.12zm-.805 1.618c.217-.412.416-.837.591-1.274.034.08.111.146.232.157l.021.003c-.284.37-.565.741-.844 1.114zm-.197-1.334c.268-.833.51-1.676.755-2.534l.001-.018.053.041c-.193.882-.47 1.709-.809 2.511zm-.108-2.426a.268.268 0 0 0-.178-.245c.154-.064.308-.101.46-.102-.097.114-.191.23-.282.347zm1.07.785a.15.15 0 0 0 .02.08c-.066.208-.134.415-.204.62.066-.232.13-.466.184-.7zm.123-.59l.078.093c-.035.12-.072.24-.109.36a.166.166 0 0 0-.08.08c.041-.177.076-.355.111-.533zm-1.69-.261l-.002.008c-.243.608-.439 1.22-.589 1.842a9.76 9.76 0 0 0-.545 1.48l-.007-.051c.258-1.07.574-2.127.956-3.177.065-.043.13-.085.195-.124a.486.486 0 0 0-.007.022zm-1.82 7.124c.091-.784.208-1.558.352-2.324.005.012.014.02.02.031-.033.238-.062.477-.083.722-.011.137.07.206.169.224l-.01.084c-.008.113.055.174.136.193-.2.353-.394.71-.585 1.07zm.488-2.97l-.023.129-.025.064.046-.213.002.02zm-.346-2.646l.05.054c.09.087.286.047.3-.092a1.575 1.575 0 0 0-.163-.92l.15.104a.2.2 0 0 0 .15.104l.28.194c.007.004.012.004.02.007a22.78 22.78 0 0 0-.462 1.407 7.228 7.228 0 0 0-.325-.858zm-.337-1.091c-.007.044-.01.088-.017.132-.07-.104-.149-.202-.21-.316-.035-.066-.11-.068-.167-.038a11.435 11.435 0 0 0-.426-.6c.313.23.627.457.944.68-.06.022-.112.063-.124.142zM39.63 3.11c.335-.316.652-.65.953-1.003-.418.71-.841 1.405-1.276 2.083l.324-1.08zm-1.56 5.258c.026-.118.05-.222.073-.3l.148-.495c-.049.234-.099.45-.159.627-.018.056-.041.113-.062.168zm.637-4.436a.079.079 0 0 1 .006-.005c.063.198.038.455-.049.745a.223.223 0 0 0-.338.038l-.408.59c.263-.457.526-.913.79-1.368zm-2.072 9.459c-.792 1.905-1.435 2.793-3.21 3.845l.31-.449a10.352 10.352 0 0 0 2.682-3.294.202.202 0 0 0 .076-.087c.193-.412.366-.83.546-1.246l.023-.025c.062-.07.12-.15.174-.235-.196.499-.394.996-.6 1.491zm-4.307-1.223c-.063-.142-.206-.244-.403-.183l-.132.04c.14-.16.273-.324.41-.485.176-.112.35-.217.521-.31-.133.312-.267.624-.396.938zm.224 1.447a.742.742 0 0 1-.031.004.253.253 0 0 0 .038-.167l.006-.015.093-.072-.106.25zm-.292 2.452l.12-.25a.318.318 0 0 0 .108-.039l.006.01c-.077.094-.159.185-.234.28zm.029 1.827l.022-.022.002.009a.732.732 0 0 0-.024.013zm-.925-4.589l-.198.046c-.455.042-.907.092-1.358.144.194-.068.388-.14.582-.21.097.047.217.038.322-.072l.06-.067c.405-.147.813-.287 1.216-.44-.207.197-.415.398-.624.6zm.346 2.298c-.01.004-.02-.001-.031.006.015-.01.03-.024.044-.038l-.013.032zm-.29.685c-.075.094-.147.19-.221.284.058-.14.111-.283.166-.425a.114.114 0 0 0 .077-.023l.073-.061-.095.225zm-.612 1.296l.2-.265c0 .098.05.178.12.23l-.024.072v.002c-.215.313-.424.632-.627.96.11-.333.218-.667.331-1zm-.434 1.309l.012-.036.004.023-.016.013zm-.665-3.883c.036-.127-.029-.276-.202-.261-.341.028-.684.065-1.026.1.183-.048.369-.09.553-.14a.28.28 0 0 0 .172.027c.152-.02.305-.042.457-.064a.319.319 0 0 0 .272.166.209.209 0 0 0-.027.169.222.222 0 0 0-.199.003zm3.995-4.113l-.125.294c-.042.04-.083.08-.125.118a1.59 1.59 0 0 0 .016-.038c.053-.125.109-.249.162-.374.024 0 .05-.002.072 0zm-5.972.604a18.337 18.337 0 0 0 5.332-3.054.376.376 0 0 0 .128-.33c.166-.08.329-.165.496-.244a44.336 44.336 0 0 0-1.335 1.61l-.238.199c-.06-.137-.23-.24-.368-.13-.4.316-.78.644-1.152.977-1.1.444-2.201.889-3.302 1.332.145-.122.291-.243.44-.36zM23.69 14.27a.24.24 0 0 0 .053-.134l.99-.409a.302.302 0 0 0 .174.07c.212.012.421.015.63.015-.613.16-1.23.306-1.847.458zm2.547-2.531c.022.036.05.066.084.092-.287.257-.57.522-.848.798-.005.005-.007.012-.012.018-.635.262-1.27.526-1.904.789.91-.54 1.8-1.11 2.68-1.697zm-6.231 3.002c-.23.104-.46.207-.687.313.233-.135.466-.268.7-.407a.258.258 0 0 0-.013.094zm-1.524 1.882c.188-.064.382-.15.577-.248a.353.353 0 0 0 .086.087l-.663.16zm7.695-6.266c.235-.197.475-.39.703-.59.014-.002.028.001.042-.002.227-.042.449-.096.674-.143a40.25 40.25 0 0 0-1.856 1.14c.147-.134.292-.27.437-.405zm8.106-.793l-.11.257c-.01.014-.023.025-.03.043l-.14.332c-.023.001-.045.001-.067.003l.233-.538.114-.097zm.375-3.138c-.054.197-.115.388-.173.583-.159.17-.318.34-.473.514a.371.371 0 0 0-.252-.332c.3-.254.6-.507.898-.765zm.226 1.585a.33.33 0 0 0 .286.18l-.024.021c-.133-.038-.283-.006-.349.147l-.118.275-.11.105.315-.728zm.576.565c-.056.107-.114.21-.17.316l.065-.23.105-.086zm-.058-1.761l.023-.026c.021.046.053.088.096.118-.134.182-.267.367-.399.552.095-.214.185-.43.28-.644zm.823.192l-.189.43c-.165.14-.33.28-.492.422l.681-.852zm.285-.356l-.083.148h-.037l.12-.148zm.192 5c-.119.377-.248.751-.41 1.116l-.019.044a9.413 9.413 0 0 1-.626 1.146.232.232 0 0 0-.027-.11l.294-.692c.282-.491.543-.994.788-1.505zm-.081-2.546c.003.005.005.01.01.015l-.048.074.038-.089zm-6.73 10.168l-.234.183c.108-.159.214-.319.315-.482l-.081.299zm-13.504-3.022a.314.314 0 0 0-.033-.176 22.363 22.363 0 0 1-.136-.258c.176.111.359.204.545.264a9.272 9.272 0 0 1-.376.17zm-.906.082c0-.025.155.038.34.109-.201.042-.343.025-.34-.11zm-.473 1.801a.184.184 0 0 0-.095-.004.676.676 0 0 0-.162.073.265.265 0 0 0 .065-.154c.241-.144.482-.29.725-.43a.284.284 0 0 0 .101.129c-.212.126-.425.253-.634.386zm-.045-.863l-.022.013.008-.03.014.017zm-1.234-.285l-.146.174c.21-.34.417-.683.613-1.036.08-.144-.009-.292-.133-.35.234-.305.464-.612.69-.921.08.059.161.116.243.172-.403.67-.829 1.32-1.267 1.961zm.51.741l-.324.204c.155-.198.305-.393.45-.583a7.5 7.5 0 0 1-.126.38zm-.577.526l.056-.07.001.033-.057.037zm-.478 1.6c.138-.06.265-.125.38-.198-.099.132-.204.26-.3.396a.166.166 0 0 0-.03.115.188.188 0 0 0-.056.02c-.303.18-.604.368-.905.56.308-.294.612-.591.911-.893zm-2.15 1.196l.077-.089.007.005a16.94 16.94 0 0 0-.083.084zM9.85 22.43l.275-.32a.25.25 0 0 0 .037.092c-.104.077-.209.151-.312.228zm-2.235 1.782c.482-.473.97-.942 1.446-1.419a.3.3 0 0 0 .14.135c-.535.415-1.064.844-1.586 1.284zm-2.063 1.55c.04.058.1.1.168.119-.466.428-.926.863-1.378 1.301.404-.473.808-.946 1.21-1.42zm73.002 4.497a177.137 177.137 0 0 0-3.677-4.03c-1.36-1.842-2.556-3.777-4.033-5.61-.915-1.135-1.994-2-3.055-2.985-.906-.84-1.484-1.97-2.248-2.888.01-.074.023-.147.031-.22.011-.1-.13-.14-.154-.038l-.025.089a5.08 5.08 0 0 0-.572-.565c-.14-.116-.317-.05-.375.113l-.013.036a.344.344 0 0 0-.258.037c-.361.235-.717.473-1.062.724-.067-.013-.14.007-.171.08l-.028.07c-.215.16-.423.33-.625.508-3.124-2.976-6.889-5.495-10.368-8.008-3.392-2.451-6.83-4.91-10.43-7.047.014-.087.033-.173.045-.26.028-.2-.261-.277-.31-.074-.087.37-.19.735-.305 1.094-.085-.065-.208-.078-.313.026l-.856.852c-.1-.075-.249-.09-.34.02-.255.307-.514.61-.774.913-1.272.941-2.583 2.282-3.59 3.308.007-.045.017-.09.023-.136a.181.181 0 0 0-.049-.151c1.997-1.742 3.95-3.554 5.9-5.332.224-.205-.099-.602-.343-.414-2.646 2.047-5.264 4.338-7.497 6.849-1.677.15-3.376.667-4.954 1.315.049-.23-.223-.479-.463-.326-3.504 2.234-6.842 4.897-10.218 7.347a24.938 24.938 0 0 0-2.8-1.45c-.138-.06-.236.078-.185.186-.014.01-.029.016-.042.03-.355.365-.703.737-1.047 1.114-.009.007-.019.012-.027.022l-.07.086c-1.688 1.859-3.268 3.848-4.846 5.81a16.59 16.59 0 0 0-1.187 1.467l-.116.141c-2.387 2.912-4.893 5.764-7.11 8.81-.055.077.042.175.111.103.26-.268.51-.547.765-.821-.002.01-.005.017-.006.028-.053.372.497.374.445 0a.414.414 0 0 0-.058-.163.176.176 0 0 0-.129-.084c.827-.761 1.666-1.503 2.512-2.233.024.151.246.256.38.13.019.186.264.345.433.169.264-.276.503-.554.735-.857.104-.137-.103-.345-.24-.24-.265.203-.51.416-.752.642.028-.052.06-.102.088-.157a.187.187 0 0 0-.035-.21c.414-.354.829-.705 1.245-1.053.008.005.012.013.022.017l.116.042c.19.07.234-.196.132-.283.835-.696 1.675-1.385 2.516-2.072a.195.195 0 0 0 .125.001c.182-.058.367-.107.533-.201.136-.076.084-.264-.049-.3a342.98 342.98 0 0 0 4.195-3.463c.063.15.255.244.388.086l.11-.13c.072.048.17.056.248-.023.237-.236.368-.51.446-.835a.254.254 0 0 0-.093-.25l.326-.382c.194-.228.445-.457.553-.739.762-.365 1.5-.773 2.219-1.217.912-.172 1.824-.337 2.736-.5a2.493 2.493 0 0 0-.545.222c-.117.069-.077.294.074.275.286-.035.542-.135.808-.24.156-.063.144-.266.026-.322.699-.124 1.398-.243 2.096-.363-.049.054-.095.11-.134.175-.067.112.065.236.174.175.116-.066.21-.157.31-.246a.138.138 0 0 0 .034-.17c.954-.163 1.907-.323 2.86-.481.03.078.095.144.19.143.037 0 .069-.006.104-.008a.66.66 0 0 1-.243.05c-.135.006-.162.164-.064.238.229.173.525.078.697-.133.063-.076.061-.155.027-.215l.06-.012a.237.237 0 0 0 .19-.223l1.164-.19c-.11.05-.223.091-.326.12a.137.137 0 0 0-.085.072c-.033-.013-.062-.03-.098-.04-.131-.043-.19.14-.089.21.176.125.336.194.535.271.13.05.202-.15.092-.219l-.015-.008a.91.91 0 0 0 .464-.27c.073-.075.067-.158.024-.219l1.16-.19a.23.23 0 0 0 .095-.038c-.044.191-.234.321-.43.346-.04-.05-.107-.078-.174-.038-.014.008-.025.02-.039.03-.084-.01-.135.044-.143.115-.039.037-.077.076-.117.116-.152.152.09.393.237.236l.106-.112c.408.156.88-.129.981-.577a.222.222 0 0 0 .003-.086c.065.042.118.059.206.07.08.01.173-.083.163-.164a.403.403 0 0 0-.091-.244l-.003-.003a6.919 6.919 0 0 0 1.018-.092c-.066.179-.126.359-.19.538-.476 1.2-1.112 2.304-1.824 3.364.026-.273-.474-.272-.437.007a.44.44 0 0 0 .098.25c.028.035.08.05.132.047a52.588 52.588 0 0 1-1.764 2.375c-.16.206.08.575.317.383.674-.547 1.35-1.093 2.022-1.645.022.137.247.164.299.004l.062-.187a.172.172 0 0 0 .125-.042c.304-.256.605-.48.91-.684-.072.077-.087.156-.101.264-.048.364.612.364.564 0-.015-.12-.03-.204-.122-.288a.23.23 0 0 0-.224-.051c.906-.592 1.835-1.015 2.883-1.518.533-.256.965-.262 1.432-.7.35-.33.607-.774.82-1.25.119.13.419.022.36-.206.012-.042.03-.08.056-.114.067-.103-.02-.259-.144-.252-.017.002-.028.01-.044.013.146-.39.276-.78.41-1.139-.051.29.446.423.536.096.073-.263.127-.52.17-.789.032-.194-.235-.347-.341-.144a8.032 8.032 0 0 0-.227.475c.382-.944.756-1.895 1.12-2.851.03.071.07.137.136.19.012.01.03.014.044.021.056.062.137.1.223.103-.073.083-.085.218.04.285a.583.583 0 0 0 .257.07c.011.04.022.08.041.12.125.27.566-.007.343-.265-.011-.018-.013-.035-.018-.052a.154.154 0 0 0 0-.085c.004-.013.004-.028.013-.041.06-.148-.174-.285-.273-.159-.027.035-.045.07-.063.104a.206.206 0 0 1-.108-.023c-.018-.01-.035-.011-.052-.015a.313.313 0 0 0 .098-.133c.07-.174.133-.349.19-.527.06-.187-.114-.294-.263-.26.15-.179-.029-.416-.213-.385.113-.31.223-.62.334-.93l.01-.02c.006-.013.005-.023.01-.035.204-.576.403-1.153.595-1.734.014.01.023.023.042.028a.4.4 0 0 0 .366-.084c-.032.075-.067.149-.096.227-.129.353.458.523.568.156.078-.26.122-.52.167-.79.035-.21-.257-.376-.371-.156-.049.094-.094.187-.14.28.002-.017.01-.031.009-.05-.007-.273-.383-.258-.413 0l-.013.012c.184-.567.358-1.136.525-1.708.044.043.12.054.172.025-.037.17-.067.341-.081.519-.022.272.35.272.437.059.174-.428.24-.868.3-1.324.021-.17-.14-.23-.273-.19a.621.621 0 0 1 .05-.131.93.93 0 0 1 .238-.039c.385-.012.382-.623 0-.597-.021.001-.046.005-.07.008l.135-.299c.06-.137-.107-.305-.225-.174-.047.052-.088.107-.13.162.145-.318.273-.643.382-.975l.032.226c.018.129.243.13.26 0l.006-.033a.417.417 0 0 0 .103.103c0 .008-.003.013-.004.021-.023.354.573.354.55 0-.003-.028-.01-.049-.014-.073.008-.008.016-.01.023-.02.199-.226-.064-.51-.299-.386 0 .005-.008.012-.021.012-.012.007-.023.01-.035.02.017-.014.023-.016.032-.022-.009 0-.018-.004-.026-.018-.068-.121-.258-.124-.338-.018a.173.173 0 0 0-.212-.001c.084-.276.16-.556.219-.843 2.644 1.929 5.341 3.783 8.006 5.683-.034.015-.068.024-.1.044-.286.184.012.59.289.376.106-.083.263-.057.372.003.016.01.031.012.047.017.583.418 1.167.835 1.745 1.26a.15.15 0 0 0 .056.15c1.035.802 2.275 1.667 3.527 2.61.714.57 1.428 1.144 2.144 1.715 1.488 1.285 2.823 2.704 3.645 4.286-.005.073-.013.146-.017.22-.006.125.107.187.212.179.162.353.296.714.401 1.084a20.814 20.814 0 0 0-.631 4.359c-.003.072.047.12.106.139-.027.052-.056.103-.083.156-.07.136.135.247.21.113.419-.753.863-1.49 1.318-2.22.316-.4.594-.829.847-1.273l.006-.003c-.04.082-.072.162-.112.243-.046.093.044.165.12.143-.26.353-.522.704-.771 1.064-.064.093.09.203.16.115.316-.393.62-.795.924-1.198a.142.142 0 0 0 .154-.052c.527-.518.993-1.1 1.476-1.666.225.032.456.209.834.413l.033.016c-.024.019-.048.036-.07.067a.541.541 0 0 0-.092.21.21.21 0 0 0 .254.254.535.535 0 0 0 .208-.093c.097-.066.131-.148.128-.228.41.2.83.385 1.264.527.43.55.867 1.096 1.307 1.642a.744.744 0 0 1-.295.047c-.22-.008-.284.293-.109.4.255.157.523.133.757-.005 1.665 2.048 3.41 4.05 5.26 5.907.447.516.933.992 1.465 1.42a45.74 45.74 0 0 0 1.823 1.611c.223.187.49-.113.303-.326z" mask="url(#d)"/>
        </g>
        <path fill="#000" d="M8.723 42.017a3.19 3.19 0 0 0-.6.389c-.287.221-.02.764.27.541.197-.152.38-.293.548-.491.147-.174-.001-.54-.218-.439M9.571 40.036c-.18.1-.318.228-.467.37-.32.306.172.811.483.492.143-.146.272-.287.373-.465.147-.256-.142-.534-.389-.397M11.737 39.027c-.24.178-.458.372-.67.584-.208.207.114.53.323.322.211-.212.405-.43.583-.67.1-.136-.1-.336-.236-.236M12.062 36.129c.083 0 .083-.129 0-.129s-.083.129 0 .129M5.986 41.628a1.8 1.8 0 0 0-.21-.424c-.374-.57-1.144.195-.57.572.16.104.246.143.423.21.199.075.431-.158.357-.358M9.845 37.737c.207-.115.207-.48 0-.594a1.01 1.01 0 0 0-.348-.133c-.66-.123-.665.983 0 .859a.988.988 0 0 0 .348-.132M12.85 36.458a.273.273 0 0 0-.386-.386l-.36.287c-.327.263.196.786.458.458l.288-.359M15.678 32.033a4.985 4.985 0 0 0-.607.55c-.22.227.12.565.347.346.2-.194.382-.384.549-.607.123-.166-.123-.412-.29-.289M16.689 32.859c.12-.188.233-.357.302-.557.072-.21-.315-.417-.521-.227-.175.162-.293.32-.424.504-.226.318.438.6.643.28M20.108 30c-.143-.009-.144.231 0 .223l.324-.02c.117-.008.117-.176 0-.183l-.324-.02M23.524 29.05l-.351.269c-.475.363.14.986.508.507.09-.117.178-.234.269-.35.185-.242-.184-.611-.426-.426M25.994 29.58c.043-.257-.159-.356-.246-.169-.038.07-.087.102-.147.102.164-.043.163-.402-.007-.433l-.418-.078c-.234-.044-.235.639 0 .595l.41-.076c-.153.002-.181.392-.03.453.214.087.38-.043.438-.394M27.441 29.223c.13-.008.13-.194 0-.202l-.324-.02c-.156-.01-.156.252 0 .243l.324-.02M21.176 32.364c.234 0 .235-.364 0-.364-.234 0-.235.364 0 .364M28.702 29.87c.131-.162.2-.276.28-.467.089-.21-.176-.474-.385-.386-.191.08-.305.15-.467.281-.407.33.242.98.572.572M25.062 27.129c.083 0 .083-.129 0-.129s-.083.129 0 .129M22.43 27.94l.37-.245c.507-.337-.174-1.024-.514-.512-.08.123-.163.246-.245.37-.154.233.155.542.388.387"/>
        <path fill="#000" d="M20.467 29.075a2.442 2.442 0 0 0-.397.372c-.146.183-.056.586.193.55.173-.024.319-.07.485-.137.52-.212.14-1.124-.28-.785M19.555 29.016c-.484.126-.82.708-.273.952.204.091.465-.023.465-.214 0-.009-.015-.17.002-.175.44-.122.256-.68-.194-.563M21.062 29c-.083 0-.083.129 0 .129s.083-.129 0-.129"/>
        <path fill="#000" d="M21.666 29.021l-.441.195c-.458.202-.136 1.02.252.718l.4-.312c.246-.192.095-.735-.21-.6M24.058 29c-.078 0-.078.122 0 .122.079 0 .08-.122 0-.122M27.676 29.083c-.294-.231-.85.043-.623.545.25.549 1.046.27.937-.318-.032-.17-.172-.235-.314-.227M25.754 27.151l-.428-.142c-.227-.075-.45.32-.246.528l.336.34c.465.472.856-.553.338-.726M34.264 30c-.352 0-.352.546 0 .546s.352-.546 0-.546M30.626 32.012c-.155.05-.257.094-.402.171-.636.34.25 1.231.593.592.077-.144.122-.246.17-.401.067-.21-.151-.429-.361-.362M31.673 32.034c-.198.145-.403.284-.582.452-.282.264.159.705.423.423.168-.179.307-.383.452-.582.125-.17-.123-.418-.293-.293M33.686 29.02c-.218.108-.405.206-.588.387-.271.27.075.73.364.554.185-.111.326-.27.472-.44.166-.196-.003-.62-.248-.5M35.508 29.978l.237-.072c.34-.103.34-.709 0-.813a89.163 89.163 0 0 0-.237-.072c-.676-.206-.68 1.166 0 .957"/>
        <path fill="#000" d="M36.459 29.094a4.837 4.837 0 0 0-.42.529c-.195.285.39.537.586.25.14-.204.253-.402.357-.617.114-.234-.352-.351-.523-.162M37.385 27.48l-.03-.324a.162.162 0 0 0-.324 0l-.03.324c-.024.248.407.248.384 0M38.727 22.839c.12-.205.206-.39.267-.607.057-.2-.336-.327-.51-.142-.19.202-.327.4-.458.621-.169.288.533.413.7.128M41.67 19.879c.144-.202.255-.39.322-.612.073-.244-.361-.368-.561-.166a2.259 2.259 0 0 0-.411.585c-.137.265.468.445.65.193M43.52 14.964c.303.138.582-.14.444-.444a1.016 1.016 0 0 0-.18-.316c-.391-.566-1.148.184-.58.58.095.079.2.139.317.18M43.063 13c-.084 0-.084.13 0 .13.083 0 .083-.13 0-.13"/>
        <path fill="#000" d="M44.757 15c.239.013.308-.346.18-.544a1.323 1.323 0 0 0-.424-.403c-.388-.259-.731.502-.341.733.2.118.364.2.585.214M45.137 14c-.182 0-.183.284 0 .284s.183-.284 0-.284M43.673 15.312l-.036.049a.305.305 0 0 0-.138-.167c-.02-.114-.14-.214-.26-.19-.434.086-.22.798.194.698-.04.28.392.448.481.11l.08-.301c.048-.184-.198-.366-.321-.2M45.83 16.074c-.23-.11-.412-.083-.646-.013-.242.072-.248.558 0 .625.24.064.416.089.645-.027.224-.112.232-.475 0-.585M46.78 14.176l-.173-.081c-.81-.522-.81 1.308 0 .787l.172-.081c.295-.093.295-.532 0-.625M47.785 16.442a91.935 91.935 0 0 0-.295-.353c-.235-.28-.682.166-.4.401l.352.295a.243.243 0 0 0 .343-.343M49.062 18c-.083 0-.083.129 0 .129.084 0 .084-.129 0-.129M50.063 19c-.084 0-.084.129 0 .129.083 0 .083-.129 0-.129"/>
        <path fill="#000" d="M50.063 19.13c.083 0 .083-.13 0-.13-.084 0-.084.13 0 .13M47.021 19.107l-.02.324c-.01.17.273.17.262 0l-.019-.324c-.009-.143-.214-.143-.223 0M43.666 20.047c-.043-.037-.094-.06-.153-.039-.156.056-.205.212-.196.376-.428-.248-.424.858.02.567l.131-.088c.015-.01.024-.03.035-.045.126.11.295.1.445-.184.157-.297-.07-.59-.282-.587"/>
        <path fill="#000" d="M43.59 19.993c.224-.069.362-.27.407-.49a.158.158 0 0 0-.263-.15c-.012.012-.026.021-.038.032.013-.187-.1-.385-.347-.385-.3 0-.405.291-.321.501a.3.3 0 0 0 0 .155c.02.09.122.111.197.079a.3.3 0 0 0 .06-.036c.022.004.04.013.064.013.022 0 .038-.008.058-.011 0 .007-.002.014 0 .021-.113.112.032.318.183.271M43.132 21.25c-.08.167-.136.284-.132.463.005.197.288.372.503.243.205-.123.297-.244.428-.423.318-.44-.554-.79-.799-.283"/>
        <path fill="#000" d="M43.062 19c-.083 0-.083.13 0 .13.084 0 .084-.13 0-.13M43.063 14c-.084 0-.084.13 0 .13.083 0 .083-.13 0-.13M43.062 13.003c0-.009-.021.002-.062.027.002 0 .005.004.007.005a.781.781 0 0 1 .055-.032M43.455 13.107c-.013-.143-.37-.143-.384 0-.023.249-.048.498-.07.747-.02.194.544.195.525 0l-.07-.747M41.994 22.524c.026-.168-.034-.34-.151-.39-.114-.048-.264.005-.368-.076-.358-.278-.676.517-.318.796.287.223.749.246.837-.33M41.6 24.003c-.229.027-.351.053-.517.217a.301.301 0 0 0 0 .415c.17.169.287.19.518.218.532.064.533-.914 0-.85M38.062 26.13c.083 0 .083-.13 0-.13s-.083.13 0 .13M42.063 24c-.084 0-.084.129 0 .129.083 0 .083-.129 0-.129M44.062 22.129c.084 0 .084-.129 0-.129-.083 0-.083.129 0 .129M45.518 22.037a.886.886 0 0 0-.322.193c-.54.406.164 1.116.575.573a.896.896 0 0 0 .192-.321c.14-.303-.142-.585-.445-.445M47.887 21.243c-.112-.324-.663-.324-.774 0l-.087.252c-.233.671 1.18.676.948 0l-.087-.252M46.002 19.253c-.019.218.083.377.194.573.223.396 1.023.046.747-.347-.14-.197-.231-.322-.468-.442-.214-.108-.456.037-.473.216"/>
        <path fill="#000" d="M45.398 19c-.53-.017-.531 1.01 0 .992a.652.652 0 0 0 .44-.147c.216-.165.216-.533 0-.699a.656.656 0 0 0-.44-.146M46.04 20.728c-.17.2.242.385.412.188.192-.226.362-.456.527-.694.095-.137-.152-.306-.289-.174-.23.222-.446.442-.65.68M47.452 16.32a.06.06 0 0 1-.048.003h-.008c-.047-.022-.076-.108-.102-.19-.082-.256-.274-.106-.291.136a.83.83 0 0 0 .094.475c.018.137.077.256.184.256.206 0 .408-.012.61-.089.145-.055.146-.45 0-.505a1.29 1.29 0 0 0-.323-.074c-.034-.024-.071-.035-.116-.012M48.323 19.021c-.323-.159-.462.615-.14.773.175.087.345.15.527.2.233.064.42-.447.174-.627a3.808 3.808 0 0 0-.561-.346M49.31 21.015c-.31-.135-.444.692-.132.814.209.083.402.167.617.171.198.003.29-.493.104-.652-.191-.165-.38-.243-.589-.333M51.015 20.483l.068.279c.078.317.625.317.703 0l.068-.28c.157-.64-.996-.645-.84 0"/>
        <path fill="#000" d="M51.986 19.656c-.09-.233-.219-.378-.396-.554-.314-.315-.803.174-.489.489.176.175.323.304.555.395.183.071.401-.147.33-.33M56.465 23.118c-.248-.324-.673.096-.347.346l.355.27c.15.116.378-.112.263-.262l-.27-.354M54.603 23.004a.555.555 0 0 0-.43.124c-.23.166-.23.578 0 .744.151.108.255.14.43.124.529-.046.53-.945 0-.992M53.22 21.987c.238-.115.449-.252.667-.418.26-.198.022-.727-.236-.523-.216.172-.41.347-.6.564-.128.145.006.457.17.377M49.728 23.91c.178-.165.209-.282.225-.505.038-.54-.989-.54-.952 0 .016.222.052.344.226.505.129.12.371.12.501 0M44.675 25.328l-.227-.166c-.053-.204-.399-.228-.436 0-.067.41.14.773.573.833.505.07.566-.69.09-.667M43.136 24.73c.149.12.257.188.436.254.231.084.496-.18.412-.412a1.39 1.39 0 0 0-.254-.436c-.341-.425-1.019.253-.594.594M48.68 24.775c.065-.155.073-.237.093-.404.056-.494-.826-.495-.77 0 .02.167.029.249.092.404.119.286.467.287.586 0M50.088 24.51c.169.17.338.309.53.45.198.147.488-.145.343-.342a4.607 4.607 0 0 0-.45-.53c-.273-.273-.695.15-.423.423M53.93 24.542a2.686 2.686 0 0 0-.318-.432c-.3-.345-.847.202-.501.501.164.142.247.206.43.318.243.147.535-.145.389-.387"/>
        <path fill="#000" d="M54.005 24.313c-.017.169.013.319.074.483.101.272.741.272.842 0 .062-.164.091-.314.074-.483-.042-.417-.948-.418-.99 0M56.547 23.004c-.69-.073-.718.79-.136.972.466.144.728-.385.513-.664a.428.428 0 0 0-.377-.308M57.062 25c-.083 0-.083.129 0 .129.084 0 .084-.129 0-.129M58.618 25.252c-.113-.096-.228-.005-.27.118a54.592 54.592 0 0 1-.037-.237c-.037-.232-.353-.136-.306.1.044.223.078.451.15.665.05.144.253.14.248-.04-.002-.087-.014-.172-.024-.258.012.016.024.033.042.046.136.097.256.175.407.233.143.055.222-.16.137-.276a2.079 2.079 0 0 0-.347-.35M60.063 26.129c.083 0 .083-.129 0-.129s-.084.129 0 .129"/>
        <path fill="#000" d="M56.847 24.79c.072-.186.124-.366.151-.558.036-.245-.474-.313-.632-.12-.141.168-.24.337-.338.52-.192.355.676.536.82.159M60.901 29.387c-.219-.184-.452-.268-.68-.377-.223-.106-.316.657-.094.747.245.099.487.226.736.243.17.011.18-.494.038-.613M61.062 29c-.083 0-.083.13 0 .13s.084-.13 0-.13M65.581 32.884c.143-.192.281-.379.396-.582.107-.189-.18-.415-.38-.238-.2.18-.369.372-.543.57-.227.256.322.526.527.25"/>
        <path fill="#000" d="M65.59 32.143c-.015.024-.058.044-.053.058-.182-.457-.67-.054-.502.405.228.618.926.484.964-.23.016-.285-.272-.437-.408-.233"/>
        <path fill="#000" d="M65.641 32.004c-.701-.077-.926.938-.168.995.191.015.326-.196.235-.337.41-.017.388-.608-.067-.658"/>
        <path fill="#000" d="M65.521 32.063c-.21.184-.387.33-.498.572-.131.288.341.48.565.288.206-.176.285-.397.393-.626.11-.232-.28-.391-.46-.234M67.842 30.053c-.102-.02-.19-.04-.295-.03-.008 0-.013.003-.02.004-.069-.041-.163-.041-.225.042-.023.03-.036.063-.056.094a.231.231 0 0 0-.11.001 1.804 1.804 0 0 0-.47.203.161.161 0 0 0-.086-.163.7.7 0 0 0-.33-.086c-.333-.013-.333.477 0 .464.04-.002.076-.01.112-.015l-.06.042c-.236.169.065.486.313.364.14-.07.285-.146.42-.233.06.116.273.165.347.023.054-.102.102-.201.141-.303.009.002.015.005.024.006.105.009.193-.011.295-.03.21-.04.21-.343 0-.383M68.5 32c-.666 0-.667 1 0 1 .666 0 .668-1 0-1"/>
        <path fill="#000" d="M68.993 32.457c-.06-.496-.642-.588-.823-.277-.004.003-.01.005-.014.009-.652.692.96 1.28.837.268M66.817 32.194c-.166.112-.367.128-.51-.108-.173-.286-.422.207-.248.508.25.43.597.57.874.166.13-.19.058-.684-.116-.566M69.621 33.009c-.13.038-.248.07-.373.13-.499.245-.162 1.112.282.79.138-.1.254-.216.377-.34.235-.236-.02-.656-.286-.58M70.062 34c-.083 0-.083.129 0 .129.084 0 .084-.129 0-.129M71.135 36.743c.15.127.247.193.435.245a.343.343 0 0 0 .418-.418 1.006 1.006 0 0 0-.245-.435c-.36-.423-1.03.248-.608.608M73.42 36.058c-.307-.245-.596.347-.29.59.17.134.338.23.524.327.219.115.474-.194.273-.421a3.922 3.922 0 0 0-.506-.496M75.68 39.123c-.333-.384-.94.224-.557.557a1.5 1.5 0 0 0 .415.283c.285.14.564-.14.425-.425a1.486 1.486 0 0 0-.283-.415"/>
        <path fill="#000" d="M76.215 39.824a.978.978 0 0 0 .349.164.348.348 0 0 0 .423-.425.97.97 0 0 0-.162-.35c-.415-.592-1.207.193-.61.61M77.496 40.866l.28-.097c.298-.104.3-.54 0-.644l-.28-.098c-.659-.229-.664 1.07 0 .84M77.368 41.058a.22.22 0 0 0-.31.31l.43.537c.238.298.715-.178.417-.417l-.537-.43M72.379 39.04c-.204-.145-.477.137-.344.333l.312.46c.31.456.96-.13.485-.47l-.453-.323M70.79 36.153c-.19-.073-.368-.14-.566-.153-.247-.014-.295.443-.117.616.162.16.342.25.525.355.35.199.538-.672.159-.818"/>
        <path fill="#000" d="M69.764 36.002l-.587.101c-.236.041-.236.566 0 .607l.587.101c.314.054.315-.863 0-.809M65.748 34.447c-.042.043-.08.062-.118.067.02-.02.041-.035.06-.06.115-.148-.005-.46-.15-.383-.088.047-.152.052-.234-.025-.225-.212-.439.366-.204.517.08.052.155.074.228.08-.01.064-.007.131.031.18.172.215.364.233.559.06.189-.17.008-.62-.172-.436M68.685 34.024c-.221.12-.423.22-.601.43-.231.27.062.66.316.515.214-.124.366-.333.534-.537.181-.22-.048-.519-.25-.408"/>
        <path fill="#000" d="M69.243 34.422l-.02-.325c-.008-.13-.195-.13-.203 0l-.02.325c-.01.156.253.156.243 0M69.878 32.537c.27-.388-.495-.774-.782-.357-.297.431.14.897.693.81.257-.042.27-.335.09-.453M69.475 36.127l-.132.026c-.194-.148-.43.152-.31.415.21.46.578.456.87.13.3-.33-.171-.97-.428-.571"/>
        <path fill="#000" d="M69.716 34.601c.271-.042.271-.504 0-.546l-.311-.049c-.538-.085-.542.73 0 .644l.311-.049M35.509 30.037a.857.857 0 0 0-.311.187c-.545.41.164 1.125.578.577a.874.874 0 0 0 .187-.31c.142-.308-.146-.596-.454-.454M37.463 30.095l-.403.486c-.274.328.467.632.647.22l.237-.542c.104-.238-.323-.354-.48-.164M38.062 29.129c.083 0 .083-.129 0-.129s-.083.129 0 .129M39.985 27.475a.694.694 0 0 0-.147-.312.432.432 0 0 0-.676 0 .694.694 0 0 0-.148.312c-.163.698 1.136.702.971 0M41.785 26.001c-.214-.01-.383.057-.584.151-.357.168-.196 1.007.155.821.22-.116.396-.224.579-.443.15-.181.018-.521-.15-.529M41.063 29.129c.083 0 .083-.129 0-.129-.084 0-.084.129 0 .129M38.11 29.162c-.08.19-.099.374-.11.568-.02.36 1.02.36 1 0-.012-.194-.03-.379-.11-.568-.091-.216-.689-.216-.78 0M38.792 25a2.312 2.312 0 0 0-.613.171c-.314.124-.18.951.134.814.206-.09.39-.186.584-.331.19-.143.095-.675-.105-.653M41.062 27.129c.083 0 .084-.129 0-.129-.083 0-.083.129 0 .129M42.78 29c-.204-.003-.386.088-.581.166-.361.145-.182 1.003.151.804.21-.126.403-.224.582-.43.155-.178.019-.537-.152-.54M43.423 26.05l-.353.294c-.22.185.13.536.316.315l.295-.352a.183.183 0 0 0-.258-.258M45.062 26c-.083 0-.083.129 0 .129s.084-.129 0-.129M43.626 27.012c-.152.05-.258.096-.402.171-.638.335.255 1.233.592.591.076-.143.122-.248.171-.4.069-.21-.152-.43-.36-.362M45.705 29.128c-.343-.4-.978.235-.576.576.16.138.267.204.464.28.217.084.474-.174.391-.391a1.387 1.387 0 0 0-.28-.465"/>
        <path fill="#000" d="M46.571 29.087l-.17.075c-.45-.157-.576.75-.089.83.316.053.632-.17.684-.589.041-.33-.22-.526-.425-.316M46.46 24.935c.201-.164.385-.303.509-.554.103-.212-.068-.41-.254-.378-.224.04-.387.17-.573.31-.337.258-.01.89.317.622M44.062 23.129c.084 0 .084-.129 0-.129-.083 0-.083.129 0 .129"/>
        <path fill="#000" d="M46.225 24.854c.16.107.264.141.455.146.17.005.325-.15.32-.32a.737.737 0 0 0-.147-.456c-.415-.624-1.255.21-.628.63M47.063 26.129c.083 0 .083-.129 0-.129-.084 0-.084.129 0 .129M45.063 24.129c.083 0 .083-.129 0-.129-.084 0-.084.129 0 .129M47.756 26c-.19.014-.359.074-.54.15-.386.163-.206 1.013.165.822.18-.092.346-.175.504-.324.191-.182.141-.666-.129-.647M49.839 27c-.233.038-.455.12-.685.208-.27.1-.154.924.115.774.224-.125.437-.248.652-.42.146-.117.072-.585-.082-.561M51.6 26.04c-.168.11-.324.23-.482.355-.374.296.231.897.563.438.101-.14.195-.278.284-.426.133-.225-.138-.515-.364-.367M53.791 26.384c-.092-.013-.237-.026-.274-.158-.112-.396-.61-.23-.502.177.128.48.584.816.922.427.144-.167.018-.425-.146-.446M56.062 29.129c.084 0 .084-.129 0-.129-.083 0-.083.129 0 .129"/>
        <path fill="#000" d="M56.775 29.395c-.161.058-.324-.029-.39-.25-.093-.302-.45-.086-.375.227.14.578.59.832.934.439.143-.164-.014-.473-.17-.416M60.063 30.129c.083 0 .083-.129 0-.129-.084 0-.084.129 0 .129M60.573 30.046c-.02.014-.13.11-.144.106-.433-.119-.613.73-.182.83.359.082.755-.107.753-.629-.001-.272-.24-.44-.427-.307M21.863 32.854c.126-.18.16-.321.123-.523-.079-.441-.893-.442-.972 0-.037.204-.002.344.123.523.134.195.59.195.726 0M14.543 34.992c.197-.034.31-.117.413-.308a.402.402 0 0 0 0-.368c-.106-.198-.215-.275-.413-.308-.722-.121-.726 1.105 0 .984M11.89 34.637c.022-.106.054-.209.094-.31.11-.311-.378-.44-.577-.208-.073.096-.16.18-.26.256-.565.422.675 1.02.743.262M16.849 30.723c.343-.226.042-.904-.302-.677-.182.12-.323.214-.47.4-.195.244.014.6.243.549.2-.046.347-.152.529-.272M13.91 32.173c.084-.084-.086-.223-.226-.155-.075.037-.152.072-.228.108a.84.84 0 0 0-.224.042.144.144 0 0 0-.103.113c-.11.052-.216.108-.324.161-.052-.056-.174-.086-.274-.031a.446.446 0 0 0-.181.168.197.197 0 0 0-.126.041l-.186.17c-.17.156.284.321.381.11l.01-.021c.053.02.118.025.18-.004.27-.124.527-.264.78-.406.119.016.23.008.374 0 .257-.014.304-.21.147-.296"/>
        <path fill="#000" d="M15.933 30.39v-.02c-.132-.508-.858-.495-.927.053-.077.608.66.762.938.333a.305.305 0 0 0-.01-.366M17.964 30.725a.312.312 0 0 0-.175-.437c-.098-.418-.81-.384-.789.123.023.554.676.834.964.314M17.415 32.131c-.169.197-.422.393-.415.653.003.143.154.244.312.21.282-.062.436-.33.605-.522.282-.319-.223-.668-.502-.34M17.618 34.039c-.186.13-.353.262-.52.415-.303.277.172.75.448.449a5.13 5.13 0 0 0 .416-.52c.141-.203-.141-.487-.344-.344M21.465 31.017c-.254-.09-.538.194-.448.448a.89.89 0 0 0 .263.414c.399.373.972-.2.6-.599a.899.899 0 0 0-.415-.263M23.062 31.129c.083 0 .083-.129 0-.129s-.083.129 0 .129M25.604 31.177c-.012.035-.026.047-.044.035-.21-.525-.77.03-.477.521.273.457.763.294.904-.24.08-.303-.235-.551-.383-.316M27.112 30.87c.332.256.653.14.856-.412.121-.328-.134-.59-.282-.386-.113.155-.274.152-.398.062-.237-.173-.412.554-.176.736M26.507 32.05c-.208.133-.325.22-.465.446-.123.198.043.52.234.503.231-.02.36-.109.562-.25.37-.256.042-.938-.33-.7M23.544 33.062a.368.368 0 0 1-.278.064c-.218-.062-.347.289-.209.543.218.4.49.407.792.182.345-.26.036-1.082-.305-.789M21.76 34.178l-.457-.163c-.295-.105-.405.359-.193.552l.388.358c.367.338.771-.564.261-.747M28.425 29.937l.475-.4c.2-.167.079-.634-.172-.52l-.527.243c-.41.188-.119.964.224.677M31.977 29.5a93.936 93.936 0 0 0-.078-.253c-.102-.329-.698-.33-.8 0l-.078.252c-.207.666 1.163.67.956 0M30.062 29c-.083 0-.083.13 0 .13s.083-.13 0-.13"/>
        <path fill="#000" d="M21.72 35.002a2.166 2.166 0 0 0-.562.13c-.21.09-.21.646 0 .735.186.078.372.104.563.131.372.051.372-1.048 0-.996M16.695 36.068a.724.724 0 0 1-.53.275c-.148.016-.24.395-.082.523.287.234.573.152.826-.172.215-.274.01-.9-.214-.626M14.702 36.017c-.208.102-.422.178-.61.368-.167.167-.09.602.096.614.217.012.43-.1.641-.18.3-.114.172-.948-.127-.802M13.062 37.129c.083 0 .083-.129 0-.129s-.083.129 0 .129M14.39 39.396c-.01-.064-.074.027-.152.016-.216-.028-.312.286-.172.424.442.433 1.027-.07.922-.608-.08-.403-.658-.225-.598.168M12.786 40.2a1.73 1.73 0 0 0-.394-.186c-.215-.076-.454.164-.378.379.056.157.096.25.185.394.37.598 1.189-.215.587-.588M11 36.5c0-.487-.489-.636-.788-.368l-.114.102c-.13.116-.13.415 0 .532l.114.102c.299.267.788.121.788-.368M8.73 36.385c.032-.087.006-.189-.135-.272a.533.533 0 0 0-.196-.09c-.253-.088-.483.09-.37.284a.377.377 0 0 0 .117.15c.105.104.23.126.341.106-.04.075-.08.15-.109.23-.048.143.212.287.348.155a2.13 2.13 0 0 0 .24-.27c.111-.15-.068-.286-.236-.293M8.81 40.811c.085-.172.14-.337.185-.514.06-.238-.444-.43-.632-.178a3.39 3.39 0 0 0-.341.547c-.163.334.627.478.789.145M4.845 41.072c-.138.492-.441.577-.71.387-.125-.089-.184.245-.086.366.346.426.815.02.947-.64.03-.156-.11-.262-.151-.113"/>
        <path fill="#000" d="M3.229 41.126c-.1.206-.173.402-.225.613-.08.338 1.03.357.995 0a2.685 2.685 0 0 0-.14-.613c-.06-.176-.551-.16-.63 0M3.836 40.022c-.262.213-.522.42-.777.644-.175.155.08.457.25.28.228-.237.442-.484.661-.73.086-.096-.03-.279-.134-.194M9.062 36c-.083 0-.083.129 0 .129s.083-.129 0-.129M12.062 36.129c.083 0 .083-.129 0-.129s-.083.129 0 .129M12.75 39.03l-.656.534c-.235.191.017.592.242.372l.613-.598c.143-.14-.045-.433-.2-.307M22.804 39.016c-.456-.09-.75.204-.801.643-.054.443.717.466.704 0l.097-.112c.245-.073.278-.476 0-.53M26.062 35.13c.083 0 .083-.13 0-.13s-.083.13 0 .13M30.062 35.129c.083 0 .083-.129 0-.129s-.083.129 0 .129M31.062 37.129c.083 0 .083-.129 0-.129s-.083.129 0 .129M27.062 37.129c.083 0 .083-.129 0-.129s-.083.129 0 .129M27.846 34.004c-.24.083-.483.153-.72.269-.22.108-.127.838.094.713.234-.134.462-.314.692-.48.153-.112.09-.555-.066-.502M31.906 34.245a.757.757 0 0 0-.21-.179c-.304-.189-.696.05-.696.434s.392.623.696.434a.757.757 0 0 0 .21-.179.396.396 0 0 0 0-.51M31.5 36c-.666 0-.667 1 0 1 .666 0 .667-1 0-1M28.65 37.026c-.173.088-.347.169-.507.287-.343.254-.002.893.317.62.173-.147.318-.316.47-.492.194-.227-.05-.532-.28-.415M33.505 34.037l-.268.122c-.681.308.293 1.288.604.603l.122-.268c.142-.312-.145-.599-.458-.457M35.5 32c-.666 0-.667 1 0 1 .666 0 .667-1 0-1M37.715 32.126c-.366-.392-.982.223-.589.589.145.135.25.196.432.267.236.091.515-.188.424-.423a1.173 1.173 0 0 0-.267-.433M38.062 36.129c.083 0 .083-.129 0-.129s-.083.129 0 .129M41.457 35.082l-.334.332c-.474.472.562.857.73.339l.138-.423c.075-.228-.325-.457-.534-.248M39.155 32.134c-.118.187-.14.333-.154.536-.032.44 1.029.44.998 0-.014-.205-.036-.35-.154-.536-.114-.179-.576-.179-.69 0M43.64 32.026a3.023 3.023 0 0 0-.497.287c-.341.257-.006.892.317.621.174-.145.318-.305.468-.483.198-.235-.05-.543-.287-.425M44.7 34.306c-.034.004-.065-.005-.1.014.044-.022.077-.027.1-.014m.028-.004c-.068-.425-.736-.404-.728.082.008.516.605.86.932.403.159-.223.018-.49-.204-.485M46.604 35.05a4.212 4.212 0 0 0-.542.514c-.26.295.366.631.593.296.137-.202.235-.4.33-.619.086-.194-.227-.315-.381-.19M48.41 34c-.546 0-.547.85 0 .85.548 0 .549-.85 0-.85M50.444 32.085l-.31.297c-.509.485.587.91.745.357l.113-.391c.07-.245-.323-.478-.548-.263M50.063 32.129c.083 0 .083-.129 0-.129s-.084.129 0 .129M54.582 32.01a1.371 1.371 0 0 0-.35.142c-.658.357.256 1.276.615.615.068-.124.108-.213.142-.35a.334.334 0 0 0-.407-.406M56.52 34.031l-.325-.03c-.26-.025-.26.429 0 .405l.324-.031a.172.172 0 0 0 0-.344M57.195 35c-.26 0-.26.405 0 .405.261 0 .261-.405 0-.405M58.063 34.129c.083 0 .083-.129 0-.129-.084 0-.084.129 0 .129M56.063 32c-.084 0-.084.129 0 .129.083 0 .083-.129 0-.129M51.062 30.129c.084 0 .084-.129 0-.129-.083 0-.083.129 0 .129M46.833 31.811c.223-.124.223-.498 0-.622l-.19-.106c-.858-.481-.858 1.315 0 .834l.19-.106"/>
        <path fill="#000" d="M56.5 32c-.43 0-.595.38-.447.686.045.091.094.15.176.217a.43.43 0 0 0 .542 0 .606.606 0 0 0 .176-.217c.148-.306-.018-.686-.447-.686M53.5 30c-.666 0-.667 1 0 1 .666 0 .667-1 0-1M50.808 29.12a1.964 1.964 0 0 0-.48-.118c-.437-.058-.437 1.053 0 .996.164-.022.32-.054.48-.118.256-.101.256-.66 0-.76M59.803 33.207c-.411-.573-1.171.182-.595.596a.771.771 0 0 0 .28.16c.328.142.617-.147.475-.475a.754.754 0 0 0-.16-.281M61.682 35.018l-.447.176c-.49.19-.12 1.06.259.734l.391-.338c.224-.193.101-.69-.203-.572"/>
    </g>
</svg>
